<svg width="100" height="117" viewBox="0 0 100 117" fill="none" xmlns="http://www.w3.org/2000/svg">
<rect width="100" height="116.667" fill="white"/>
<path d="M65.4761 89.2859C88.0952 92.8574 95.2549 79.7768 95.2549 65.0713C95.2549 58.0917 90.1785 46.4287 71.7261 46.4287" stroke="#333333" stroke-width="1.87221" stroke-linecap="round" stroke-linejoin="round"/>
<path d="M1.89562 102.488C1.82228 104.039 2.47416 105.519 3.80908 106.832" stroke="#333333" stroke-width="1.87221" stroke-linecap="round" stroke-linejoin="round"/>
<path d="M72.8729 92.9322C59.0792 99.9318 44.8594 93.7141 30.3219 88.4926C15.7844 83.2712 3.72148 90.1919 2.17481 97.9199" stroke="#333333" stroke-width="1.87221" stroke-linecap="round" stroke-linejoin="round"/>
<path d="M70.7859 17.8832C58.3505 10.4707 44.6773 15.3731 30.7708 19.325C16.8643 23.2769 6.04 16.048 5.08682 8.73351" stroke="#333333" stroke-width="1.87221" stroke-linecap="round" stroke-linejoin="round"/>
<path d="M3.88784 2.97587C3.05571 2.97587 2.38114 3.65043 2.38114 4.48256C2.38114 5.31468 3.05571 5.98926 3.88784 5.98926C4.71996 5.98926 5.39453 5.31468 5.39453 4.48256C5.39453 3.65043 4.71996 2.97587 3.88784 2.97587Z" stroke="#333333" stroke-width="1.87221" stroke-linecap="round" stroke-linejoin="round"/>
<path d="M90.7921 13.6905C89.96 13.6905 89.2854 14.365 89.2854 15.1972C89.2854 16.0293 89.96 16.7039 90.7921 16.7039C91.6243 16.7039 92.2988 16.0293 92.2988 15.1972C92.2988 14.365 91.6243 13.6905 90.7921 13.6905Z" stroke="#333333" stroke-width="1.87221" stroke-linecap="round" stroke-linejoin="round"/>
<path d="M6.36784 109.801C5.54025 109.888 4.93973 110.629 5.02654 111.457C5.11334 112.285 5.85461 112.885 6.68219 112.798C7.50978 112.711 8.11029 111.97 8.02349 111.143C7.93668 110.315 7.19542 109.715 6.36784 109.801Z" stroke="#333333" stroke-width="1.87221" stroke-linecap="round" stroke-linejoin="round"/>
<path fill-rule="evenodd" clip-rule="evenodd" d="M26.8139 18.395C34.9301 14.7246 49.5196 18.7311 57.2259 16.8684L60.5738 29.4397C53.3209 31.1948 38.5737 28.403 30.1627 30.9685L26.8139 18.395Z" fill="#B82025" stroke="#333333" stroke-width="1.87221" stroke-linejoin="round"/>
<path fill-rule="evenodd" clip-rule="evenodd" d="M28.5428 19.2853C35.7099 16.4274 48.7039 19.7697 55.526 18.3534L58.6292 28.4378C52.2085 29.7723 39.0871 27.3997 31.6467 29.3713L28.5428 19.2853Z" fill="#B82025" stroke="white" stroke-width="1.87221" stroke-linecap="round" stroke-linejoin="round"/>
<path d="M56.0072 20.9207C54.7583 21.0349 52.6211 20.5583 52.4351 18.7034" stroke="white" stroke-width="1.87221" stroke-linecap="round" stroke-linejoin="round"/>
<path d="M29.8393 22.0899C31.8752 21.9045 32.351 20.3144 32.1926 18.7409" stroke="white" stroke-width="1.87221" stroke-linecap="round" stroke-linejoin="round"/>
<path d="M30.9834 26.3748C33.4114 26.1531 34.4098 27.8575 34.4755 28.5218" stroke="white" stroke-width="1.87221" stroke-linecap="round" stroke-linejoin="round"/>
<path d="M57.499 25.5758C55.8806 25.7236 54.3427 26.8209 54.5223 28.5951" stroke="white" stroke-width="1.87221" stroke-linecap="round" stroke-linejoin="round"/>
<path d="M45.4508 23.1612L45.4507 23.1606C45.0683 21.5166 43.6568 20.6375 42.5006 20.8812L45.4508 23.1612ZM45.4508 23.1612C45.8322 24.7964 44.9551 26.1141 43.8302 26.3516L43.8301 26.3516M45.4508 23.1612L43.8301 26.3516M43.8301 26.3516C42.6736 26.5959 41.261 25.7163 40.8783 24.0733L43.8301 26.3516ZM40.8783 24.0731C40.498 22.4381 41.3746 21.1199 42.5001 20.8813L40.8783 24.0731Z" stroke="white" stroke-width="1.87221"/>
<path fill-rule="evenodd" clip-rule="evenodd" d="M75.2824 33.5995C75.2477 33.4978 75.213 33.3956 75.1782 33.2939C75.3304 33.3593 75.2858 33.486 75.2824 33.5995Z" fill="#F5A324"/>
<path d="M65.6421 30.2128C65.6323 30.1936 65.6222 30.1737 65.6119 30.1532L73.585 25.2344C73.6456 25.3148 73.7057 25.3957 73.765 25.4775C73.873 25.6263 73.9631 25.7576 74.0307 25.8673C74.0846 25.9547 74.1099 26.0058 74.1194 26.0263C74.119 26.0279 74.1195 26.0344 74.1204 26.0454C74.1384 26.262 74.3029 28.2468 70.5401 30.347C68.4736 31.5004 67.2846 31.3826 66.6773 31.1522C66.0739 30.9234 65.8084 30.5024 65.7381 30.3911C65.7342 30.3848 65.7309 30.3795 65.7281 30.3753C65.7283 30.3756 65.7279 30.3749 65.7268 30.373C65.7207 30.362 65.6934 30.3133 65.6421 30.2128Z" fill="#B82025" stroke="#333333" stroke-width="1.87221"/>
<path d="M73.0609 24.547L73.0611 24.5472C73.2123 24.753 73.3082 25.2384 72.8479 26.095C72.4101 26.9098 71.5675 27.833 70.3923 28.6177L70.3922 28.6178C69.2184 29.4019 68.0123 29.8477 67.0401 29.964C66.0131 30.0868 65.5162 29.8277 65.3473 29.5978C65.1961 29.3919 65.1005 28.9064 65.5606 28.0499C65.9983 27.2352 66.8409 26.312 68.016 25.5273L68.0161 25.5273C69.1902 24.7432 70.3964 24.2974 71.3686 24.181C72.3957 24.0581 72.8923 24.3173 73.0609 24.547Z" fill="#B82025" stroke="#333333" stroke-width="1.87221"/>
<path d="M72.3037 24.8952L72.3038 24.8952C72.5087 25.171 72.5335 25.6626 72.1567 26.356C71.7913 27.0285 71.1011 27.7699 70.1567 28.3935L70.1566 28.3936C69.213 29.0168 68.233 29.3788 67.4257 29.4743C66.5901 29.5731 66.0765 29.3787 65.8605 29.0881C65.6557 28.8123 65.631 28.3207 66.0077 27.6274C66.3731 26.9548 67.0632 26.2134 68.0076 25.5898L68.0076 25.5898C68.9514 24.9666 69.9315 24.6046 70.7389 24.5091C71.5745 24.4102 72.0879 24.6046 72.3037 24.8952ZM67.75 25.1996L67.7497 25.1992L67.75 25.1996Z" fill="#B82025" stroke="white" stroke-width="0.936104"/>
<path fill-rule="evenodd" clip-rule="evenodd" d="M69.6391 30.8364C69.5181 30.6799 69.5373 30.4821 69.7167 30.3986C69.8824 30.3214 70.1297 30.3398 70.2296 30.4928C70.4034 30.7593 70.6333 31.1246 70.6058 31.1527C70.5625 31.1974 70.2406 31.4086 70.1508 31.4117C70.0962 31.4136 69.8355 31.0906 69.6391 30.8364Z" fill="white"/>
<path fill-rule="evenodd" clip-rule="evenodd" d="M67.4535 31.3886C67.3667 31.2824 67.4059 31.1425 67.5389 31.1091C67.6309 31.0861 67.7511 31.1036 67.8078 31.1797C67.9782 31.4083 68.3074 31.8556 68.2877 31.8741C68.2615 31.899 68.0467 31.994 67.9774 31.9784C67.9328 31.968 67.6473 31.626 67.4535 31.3886Z" fill="white"/>
<path fill-rule="evenodd" clip-rule="evenodd" d="M73.9829 27.0407C73.9107 26.9334 73.7774 26.922 73.7038 27.0283C73.6468 27.1107 73.6206 27.2402 73.6801 27.3208C73.8515 27.553 74.1743 27.9842 74.1988 27.9729C74.2321 27.9578 74.3974 27.7966 74.4051 27.7293C74.41 27.6845 74.1533 27.2941 73.9829 27.0407Z" fill="white"/>
<path fill-rule="evenodd" clip-rule="evenodd" d="M72.5291 28.9014C72.4217 28.7514 72.2496 28.7031 72.1161 28.8304C71.9768 28.9633 71.9064 29.22 72.0304 29.3672C72.2345 29.6095 72.5049 29.9196 72.5406 29.905C72.5992 29.88 72.9155 29.6615 72.9485 29.5816C72.9692 29.5312 72.718 29.1655 72.5291 28.9014Z" fill="white"/>
<path d="M26.1701 44.6413C22.7641 42.3161 15.7097 41.9204 12.6082 42.0132C13.5218 37.2989 14.9678 32.974 15.5767 31.4008C24.6463 33.6787 34.7732 36.5517 38.6742 38.6085C41.7949 40.254 43.0081 41.5687 43.2246 42.0204C52.9399 47.6561 47.6753 57.6873 45.8684 57.6868C44.0615 57.6864 45.4758 55.5657 45.4758 50.0402C41.6257 46.3725 37.9874 46.4109 37.7026 47.6566C36.7103 49.4157 45.2598 55.1347 41.6386 57.6852C39.5041 58.3917 30.4276 47.5477 26.1701 44.6413Z" fill="white"/>
<path d="M43.2246 42.0204C52.9399 47.6561 47.6753 57.6873 45.8684 57.6868C44.0615 57.6864 45.4758 55.5657 45.4758 50.0402C41.6257 46.3725 37.9874 46.4109 37.7026 47.6566C36.7103 49.4157 45.2598 55.1347 41.6386 57.6852C39.5041 58.3917 30.4276 47.5477 26.1701 44.6413C22.7641 42.3161 15.7097 41.9204 12.6082 42.0132C13.5218 37.2989 14.9678 32.974 15.5767 31.4008C24.6463 33.6787 34.7732 36.5517 38.6742 38.6085C41.7949 40.254 43.0081 41.5687 43.2246 42.0204ZM43.2246 42.0204C42.7757 41.8276 42.4004 41.6889 42.1297 41.6198" stroke="#333333" stroke-width="1.87221" stroke-linecap="round" stroke-linejoin="round"/>
<path fill-rule="evenodd" clip-rule="evenodd" d="M52.0967 59.028C51.9938 58.997 51.8905 58.9658 51.7876 58.9348C51.9293 58.8491 52.0064 58.9591 52.0967 59.028Z" fill="#F5A324"/>
<path fill-rule="evenodd" clip-rule="evenodd" d="M43.4308 54.6297C44.1401 54.6131 45.1422 54.5492 45.5471 54.6732C45.8854 54.7768 48.1931 56.0273 47.6225 61.096C47.0518 66.1651 44.096 65.8656 43.8738 65.856C43.6529 65.8463 42.6749 65.6638 42.6749 65.6638L43.4308 54.6297Z" fill="#B82025" stroke="#333333" stroke-width="1.87221"/>
<path fill-rule="evenodd" clip-rule="evenodd" d="M43.4309 54.6296C45.0237 54.6096 46.2345 57.0745 46.1353 60.1352C46.0365 63.1962 44.6651 65.6938 43.0724 65.714C41.4798 65.7337 40.2688 63.2691 40.368 60.2084C40.3984 59.27 40.5483 58.3846 40.7874 57.6073C40.9566 57.0575 42.0632 57.8629 42.311 57.4408C42.5937 56.959 42.0278 55.272 42.3831 55.0109C42.7123 54.7689 43.0657 54.6342 43.4309 54.6296Z" fill="#B82025" stroke="#333333" stroke-width="1.87221"/>
<path d="M43.5013 56.5478C44.4537 56.3564 44.963 58.1554 44.9894 60.1193C45.016 62.0833 44.156 64.0944 43.2037 64.2858C42.2514 64.477 41.4444 62.6783 41.418 60.7144C41.4123 60.2953 41.4179 59.2265 41.7156 58.6312" stroke="white" stroke-width="0.936104" stroke-linecap="round"/>
<path fill-rule="evenodd" clip-rule="evenodd" d="M46.5654 62.0096C46.3676 62.0169 46.218 61.8862 46.2545 61.6917C46.2882 61.512 46.4471 61.3216 46.6297 61.3295C46.9475 61.3432 47.3784 61.3689 47.3852 61.4076C47.3964 61.4688 47.3808 61.8535 47.331 61.9283C47.3008 61.9738 46.8864 61.9978 46.5654 62.0096Z" fill="white"/>
<path fill-rule="evenodd" clip-rule="evenodd" d="M45.7421 64.1071C45.6052 64.1158 45.5142 64.0026 45.5645 63.875C45.5993 63.7867 45.6836 63.6993 45.7784 63.6974C46.0635 63.6919 46.6188 63.6845 46.6224 63.7113C46.6274 63.7471 46.5796 63.9771 46.5266 64.0244C46.4922 64.0545 46.0479 64.0877 45.7421 64.1071Z" fill="white"/>
<path fill-rule="evenodd" clip-rule="evenodd" d="M46.0069 56.2672C45.8777 56.2634 45.7908 56.3652 45.8345 56.4868C45.8683 56.5812 45.9583 56.6779 46.0585 56.6764C46.3471 56.6721 46.8857 56.6606 46.8906 56.6341C46.8978 56.5982 46.8629 56.37 46.8126 56.3246C46.7791 56.2945 46.3122 56.2761 46.0069 56.2672Z" fill="white"/>
<path fill-rule="evenodd" clip-rule="evenodd" d="M46.6739 58.5323C46.4894 58.5323 46.3499 58.6441 46.3758 58.8268C46.4028 59.0174 46.5705 59.224 46.7624 59.2089C47.0783 59.184 47.4878 59.1445 47.4967 59.107C47.5105 59.0448 47.5169 58.6604 47.4711 58.5871C47.4422 58.5409 46.9986 58.5323 46.6739 58.5323Z" fill="white"/>
<path d="M28.7404 33.6543C27.4649 41.3228 24.9638 45.9011 23.9926 46.6124C18.7448 44.3619 13.9986 42.9624 12.2095 42.9156C13.037 38.6453 14.8322 32.2576 15.936 29.7301C18.1295 30.3608 25.4548 32.5036 28.7404 33.6543Z" fill="white" stroke="#333333" stroke-width="1.87221" stroke-linejoin="round"/>
<path d="M24.3644 41.7496C23.8335 42.917 22.9356 44.608 22.3077 45.7184C22.0487 46.1765 21.4852 46.352 21.0046 46.1379C20.3912 45.8647 20.188 45.092 20.5417 44.5213C21.8335 42.4366 22.8022 39.9396 23.3211 38.3471C23.4983 37.8033 24.0483 37.4622 24.6098 37.571C25.2265 37.6905 25.6138 38.303 25.4272 38.9028C25.1709 39.7267 24.8009 40.7897 24.3644 41.7496Z" fill="#333333"/>
<path d="M71.4123 103.572C71.4123 103.595 71.4057 103.7 71.2244 103.897C71.0384 104.099 70.7192 104.339 70.229 104.597C69.2506 105.111 67.7733 105.602 65.869 106.025C62.0756 106.868 56.7898 107.398 50.9198 107.398C45.0497 107.398 39.7639 106.868 35.9706 106.025C34.0663 105.602 32.589 105.111 31.6106 104.597C31.1204 104.339 30.8011 104.099 30.6152 103.897C30.4339 103.7 30.4273 103.595 30.4273 103.572C30.4273 103.548 30.4339 103.443 30.6152 103.246C30.8011 103.044 31.1204 102.804 31.6106 102.547C32.589 102.033 34.0663 101.542 35.9706 101.118C39.7639 100.275 45.0497 99.7459 50.9198 99.7459C56.7898 99.7459 62.0756 100.275 65.869 101.118C67.7733 101.542 69.2506 102.033 70.229 102.547C70.7192 102.804 71.0384 103.044 71.2244 103.246C71.4057 103.443 71.4123 103.548 71.4123 103.572Z" fill="#B82025" stroke="#333333" stroke-width="1.87221"/>
<path d="M64.1526 100.619C64.7139 100.931 64.8332 101.139 64.8581 101.191C64.8332 101.242 64.7139 101.451 64.1526 101.763C63.4931 102.13 62.4768 102.491 61.1404 102.805C58.4825 103.43 54.7632 103.826 50.6219 103.826C46.4807 103.826 42.7614 103.43 40.1035 102.805C38.7671 102.491 37.7507 102.13 37.0912 101.763C36.53 101.451 36.4107 101.242 36.3858 101.191C36.4107 101.139 36.53 100.931 37.0912 100.619C37.7507 100.252 38.7671 99.8911 40.1035 99.5767C42.7614 98.9513 46.4807 98.5555 50.6219 98.5555C54.7632 98.5555 58.4825 98.9513 61.1404 99.5767C62.4768 99.8911 63.4931 100.252 64.1526 100.619Z" fill="white" stroke="#333333" stroke-width="1.87221"/>
<path d="M52.2958 47.4118C51.3435 49.7928 54.28 51.7769 55.8673 52.4714C58.7244 44.6142 63.407 44.4356 65.3911 45.3285C66.3831 43.9396 68.1887 40.6855 67.4744 38.7807C66.5816 36.3998 64.2006 38.1856 61.8196 37.5904C59.4387 36.9952 55.8673 41.1618 55.8673 42.9475C55.8673 44.7333 53.4863 44.4356 52.2958 47.4118Z" fill="#B82025" stroke="#333333" stroke-width="1.87221" stroke-linecap="round" stroke-linejoin="round"/>
<path d="M70.5625 64.2857C72.3482 50.5952 70.2648 44.9404 63.122 44.9404C52.7053 44.9404 58.6577 58.0357 52.1101 65.4761C43.3006 73.8095 32.5664 66.369 28.3006 61.6071C21.4553 69.6428 18.1815 100.595 50.9196 100.595C83.6577 100.595 68.7767 77.9761 70.5625 64.2857Z" fill="white" stroke="#333333" stroke-width="1.87221" stroke-linecap="round" stroke-linejoin="round"/>
<path d="M52.4796 77.0058C48.5994 71.5668 39.9262 80.0801 30.7964 74.4045C29.6552 87.1745 37.1873 93.0866 44.4911 92.8501C51.7949 92.6136 56.3597 82.4449 52.4796 77.0058Z" stroke="#333333" stroke-width="1.87221" stroke-linecap="round" stroke-linejoin="round"/>
<path d="M65.8003 54.4643C66.0979 50.5952 72.3479 51.4881 76.217 54.4643C76.217 54.4643 65.8003 60.7143 65.8003 54.4643Z" fill="white" stroke="#333333" stroke-width="1.87221" stroke-linecap="round" stroke-linejoin="round"/>
<mask id="path-42-inside-1" fill="white">
<ellipse cx="66.6932" cy="49.4046" rx="0.892857" ry="1.19048"/>
</mask>
<ellipse cx="66.6932" cy="49.4046" rx="0.892857" ry="1.19048" fill="#333333"/>
<path d="M65.7138 49.4046C65.7138 49.3674 65.7228 49.2617 65.8267 49.1231C65.9311 48.9838 66.2183 48.7229 66.6932 48.7229V52.4673C67.6611 52.4673 68.3947 51.9398 68.8223 51.3697C69.2494 50.8002 69.4582 50.0992 69.4582 49.4046H65.7138ZM66.6932 48.7229C67.168 48.7229 67.4552 48.9838 67.5596 49.1231C67.6635 49.2617 67.6725 49.3674 67.6725 49.4046H63.9281C63.9281 50.0992 64.1369 50.8002 64.564 51.3697C64.9916 51.9398 65.7252 52.4673 66.6932 52.4673V48.7229ZM67.6725 49.4046C67.6725 49.4418 67.6635 49.5475 67.5596 49.6861C67.4552 49.8253 67.168 50.0863 66.6932 50.0863V46.3419C65.7252 46.3419 64.9916 46.8694 64.564 47.4395C64.1369 48.009 63.9281 48.7099 63.9281 49.4046H67.6725ZM66.6932 50.0863C66.2183 50.0863 65.9311 49.8253 65.8267 49.6861C65.7228 49.5475 65.7138 49.4418 65.7138 49.4046H69.4582C69.4582 48.7099 69.2494 48.009 68.8223 47.4395C68.3947 46.8694 67.6611 46.3419 66.6932 46.3419V50.0863Z" fill="#333333" mask="url(#path-42-inside-1)"/>
<mask id="path-44-inside-2" fill="white">
<ellipse cx="72.6458" cy="49.4046" rx="0.892857" ry="1.19048"/>
</mask>
<ellipse cx="72.6458" cy="49.4046" rx="0.892857" ry="1.19048" fill="#333333"/>
<path d="M71.6664 49.4046C71.6664 49.3674 71.6754 49.2617 71.7794 49.1231C71.8838 48.9838 72.1709 48.7229 72.6458 48.7229V52.4673C73.6138 52.4673 74.3473 51.9398 74.7749 51.3697C75.202 50.8002 75.4109 50.0992 75.4109 49.4046H71.6664ZM72.6458 48.7229C73.1206 48.7229 73.4078 48.9838 73.5122 49.1231C73.6162 49.2617 73.6251 49.3674 73.6251 49.4046H69.8807C69.8807 50.0992 70.0895 50.8002 70.5167 51.3697C70.9442 51.9398 71.6778 52.4673 72.6458 52.4673V48.7229ZM73.6251 49.4046C73.6251 49.4418 73.6162 49.5475 73.5122 49.6861C73.4078 49.8253 73.1206 50.0863 72.6458 50.0863V46.3419C71.6778 46.3419 70.9442 46.8694 70.5167 47.4395C70.0895 48.009 69.8807 48.7099 69.8807 49.4046H73.6251ZM72.6458 50.0863C72.1709 50.0863 71.8838 49.8253 71.7794 49.6861C71.6754 49.5475 71.6664 49.4418 71.6664 49.4046H75.4109C75.4109 48.7099 75.202 48.009 74.7749 47.4395C74.3473 46.8694 73.6138 46.3419 72.6458 46.3419V50.0863Z" fill="#333333" mask="url(#path-44-inside-2)"/>
<path d="M49.1335 71.131C49.1335 72.6193 37.5264 73.8097 37.824 71.1309C38.1243 70.3802 40.1073 71.0506 42.8835 71.131C45.6101 71.2101 49.1335 69.6428 49.1335 71.131Z" fill="#333333" stroke="#333333" stroke-width="1.87221" stroke-linecap="round" stroke-linejoin="round"/>
</svg>
