<svg width="102" height="117" viewBox="0 0 102 117" fill="none" xmlns="http://www.w3.org/2000/svg">
<rect x="1" width="100" height="116.667" fill="white"/>
<path d="M76.9593 92.869C90.2366 86.5473 95.8753 70.6592 89.5536 57.3819C86.5531 51.0801 81.3976 46.4991 75.3891 44.101" stroke="#333333" stroke-width="1.87221" stroke-linecap="round" stroke-linejoin="round"/>
<path d="M5.8717 102.487C5.79835 104.038 6.45024 105.518 7.78516 106.831" stroke="#333333" stroke-width="1.87221" stroke-linecap="round" stroke-linejoin="round"/>
<path d="M76.849 92.9322C63.0553 99.9318 48.8355 93.7141 34.298 88.4926C19.7605 83.2712 7.69755 90.1919 6.15088 97.9199" stroke="#333333" stroke-width="1.87221" stroke-linecap="round" stroke-linejoin="round"/>
<path d="M71.7859 17.8832C59.3505 10.4707 45.6773 15.3731 31.7708 19.325C17.8643 23.2769 7.04 16.048 6.08682 8.73351" stroke="#333333" stroke-width="1.87221" stroke-linecap="round" stroke-linejoin="round"/>
<path d="M4.88784 2.97587C4.05571 2.97587 3.38114 3.65043 3.38114 4.48256C3.38114 5.31468 4.05571 5.98926 4.88784 5.98926C5.71996 5.98926 6.39453 5.31468 6.39453 4.48256C6.39453 3.65043 5.71996 2.97587 4.88784 2.97587Z" stroke="#333333" stroke-width="1.87221" stroke-linecap="round" stroke-linejoin="round"/>
<path d="M91.7921 13.6905C90.96 13.6905 90.2854 14.365 90.2854 15.1972C90.2854 16.0293 90.96 16.7039 91.7921 16.7039C92.6243 16.7039 93.2988 16.0293 93.2988 15.1972C93.2988 14.365 92.6243 13.6905 91.7921 13.6905Z" stroke="#333333" stroke-width="1.87221" stroke-linecap="round" stroke-linejoin="round"/>
<path d="M10.3439 109.801C9.51633 109.888 8.9158 110.629 9.00261 111.457C9.08942 112.285 9.83068 112.885 10.6583 112.798C11.4859 112.711 12.0864 111.97 11.9996 111.143C11.9128 110.315 11.1715 109.715 10.3439 109.801Z" stroke="#333333" stroke-width="1.87221" stroke-linecap="round" stroke-linejoin="round"/>
<path d="M37.2869 74.3815L38.7897 72.1273L35.7841 68.746L32.027 66.8675H24.1373L15.8719 66.1161L8.73355 67.9946L2.34662 69.8731L1.59521 72.1273H8.73355L16.999 72.8787L29.3971 74.3815H37.2869Z" fill="white"/>
<path d="M41.4196 72.8787V70.6245L45.1766 67.9946L50.0607 66.1161L54.1934 64.6133H57.1991L61.7075 63.4862L63.9617 64.6133L61.7075 66.1161L57.1991 67.9946L49.3093 70.6245L44.0495 72.8787H41.4196Z" fill="white"/>
<path d="M33.4325 59.7586L28.5484 58.6315V57.5044L30.4269 54.8745L31.1783 49.6146L31.9297 45.1062L37.5653 44.3548L40.5709 45.8576L41.3223 49.6146L44.7036 53.3717L45.8307 57.5044L40.5709 60.51H36.8139H34.9353L33.4325 59.7586Z" fill="white"/>
<path d="M59.2632 53.4011L61.5174 51.1469L57.3847 48.8927L63.0202 49.6441L64.1473 46.6385H56.6332L58.1361 44.3842L54.379 45.5114V44.3842L57.3847 42.13L56.9456 36.2116L55.1304 37.2459L54.379 40.2515L52.8762 42.13L48.963 43.6328L50.1535 47.3899L53.6276 50.3955L59.2632 53.4011Z" fill="white"/>
<path d="M82.3711 36.06L87.2552 34.9329L100.405 43.574L98.9019 44.7011H95.5206H88.0066L84.6253 43.9497L78.6141 42.8226L75.2327 43.9497H69.5972H66.5916L68.4701 40.9441H72.9785H77.8627L79.3655 37.9385L82.3711 36.06Z" fill="white"/>
<path d="M37.2869 74.3815L38.7897 72.1273L35.7841 68.746L32.027 66.8675H24.1373L15.8719 66.1161L8.73355 67.9946L2.34662 69.8731L1.59521 72.1273H8.73355L16.999 72.8787L29.3971 74.3815H37.2869Z" stroke="black" stroke-width="1.87221" stroke-linejoin="round"/>
<path d="M41.4196 72.8787V70.6245L45.1766 67.9946L50.0607 66.1161L54.1934 64.6133H57.1991L61.7075 63.4862L63.9617 64.6133L61.7075 66.1161L57.1991 67.9946L49.3093 70.6245L44.0495 72.8787H41.4196Z" stroke="black" stroke-width="1.87221" stroke-linejoin="round"/>
<path d="M33.4325 59.7586L28.5484 58.6315V57.5044L30.4269 54.8745L31.1783 49.6146L31.9297 45.1062L37.5653 44.3548L40.5709 45.8576L41.3223 49.6146L44.7036 53.3717L45.8307 57.5044L40.5709 60.51H36.8139H34.9353L33.4325 59.7586Z" stroke="black" stroke-width="1.87221" stroke-linejoin="round"/>
<path d="M59.2632 53.4011L61.5174 51.1469L57.3847 48.8927L63.0202 49.6441L64.1473 46.6385H56.6332L58.1361 44.3842L54.379 45.5114V44.3842L57.3847 42.13L56.9456 36.2116L55.1304 37.2459L54.379 40.2515L52.8762 42.13L48.963 43.6328L50.1535 47.3899L53.6276 50.3955L59.2632 53.4011Z" stroke="black" stroke-width="1.87221" stroke-linejoin="round"/>
<path d="M82.3711 36.06L87.2552 34.9329L100.405 43.574L98.9019 44.7011H95.5206H88.0066L84.6253 43.9497L78.6141 42.8226L75.2327 43.9497H69.5972H66.5916L68.4701 40.9441H72.9785H77.8627L79.3655 37.9385L82.3711 36.06Z" stroke="black" stroke-width="1.87221" stroke-linejoin="round"/>
<path fill-rule="evenodd" clip-rule="evenodd" d="M41.1997 33.1704C39.956 30.9419 38.0008 29.8297 35.4536 29.7615C35.2948 29.7677 35.136 29.7739 34.9793 29.7863C34.8885 29.7925 34.7978 29.8028 34.707 29.8152C33.0942 30.0364 31.7329 30.7517 30.6707 31.9817C29.1198 33.7761 28.6475 35.8557 29.1961 38.1607C29.4106 39.0641 29.8272 39.889 30.2851 40.6911C31.4256 42.6818 32.9477 44.348 34.6843 45.8241C35.167 46.2334 35.8538 46.2313 36.3384 45.8261C37.2232 45.086 38.0441 44.2798 38.801 43.4054C39.89 42.1464 40.812 40.7799 41.4616 39.2398C42.332 37.1747 42.2928 35.1281 41.1997 33.1704Z" fill="#B82025" stroke="black" stroke-width="1.87221"/>
<circle cx="35.5236" cy="36.3092" r="2.63532" fill="white" stroke="black" stroke-width="1.87221"/>
<path fill-rule="evenodd" clip-rule="evenodd" d="M62.6284 29.0039C61.3847 26.7754 59.4295 25.6632 56.8823 25.595C56.7235 25.6012 56.5647 25.6074 56.408 25.6198C56.3172 25.626 56.2265 25.6363 56.1357 25.6487C54.5229 25.8699 53.1616 26.5852 52.0995 27.8152C50.5485 29.6096 50.0762 31.6892 50.6248 33.9942C50.8393 34.8976 51.2559 35.7225 51.7138 36.5246C52.8543 38.5153 54.3764 40.1815 56.113 41.6575C56.5957 42.0669 57.2825 42.0648 57.7672 41.6596C58.652 40.9195 59.4728 40.1133 60.2297 39.2389C61.3187 37.9799 62.2407 36.6134 62.8903 35.0733C63.7607 33.0082 63.7215 30.9616 62.6284 29.0039Z" fill="#B82025" stroke="black" stroke-width="1.87221"/>
<circle cx="56.9523" cy="32.1427" r="2.63532" fill="white" stroke="black" stroke-width="1.87221"/>
<path fill-rule="evenodd" clip-rule="evenodd" d="M91.1997 26.623C89.956 24.3945 88.0008 23.2823 85.4536 23.2141C85.2948 23.2203 85.136 23.2265 84.9793 23.2389C84.8885 23.2451 84.7978 23.2555 84.707 23.2679C83.0942 23.4891 81.7329 24.2043 80.6707 25.4343C79.1198 27.2287 78.6475 29.3084 79.1961 31.6134C79.4106 32.5168 79.8272 33.3416 80.2851 34.1437C81.4256 36.1345 82.9477 37.8007 84.6843 39.2767C85.167 39.686 85.8538 39.6839 86.3384 39.2788C87.2232 38.5387 88.0441 37.7324 88.801 36.858C89.89 35.599 90.812 34.2326 91.4616 32.6925C92.332 30.6273 92.2928 28.5807 91.1997 26.623Z" fill="#B82025" stroke="black" stroke-width="1.87221"/>
<circle cx="85.5236" cy="29.7619" r="2.63532" fill="white" stroke="black" stroke-width="1.87221"/>
<path fill-rule="evenodd" clip-rule="evenodd" d="M54.8901 55.1948C53.6465 52.9663 51.6912 51.8541 49.1441 51.7859C48.9853 51.7921 48.8264 51.7983 48.6697 51.8107C48.5789 51.8169 48.4882 51.8272 48.3974 51.8396C46.7846 52.0608 45.4234 52.7761 44.3612 54.0061C42.8102 55.8005 42.3379 57.8802 42.8865 60.1851C43.101 61.0885 43.5176 61.9134 43.9755 62.7155C45.116 64.7062 46.6382 66.3724 48.3748 67.8485C48.8574 68.2578 49.5442 68.2557 50.0289 67.8505C50.9137 67.1105 51.7345 66.3042 52.4915 65.4298C53.5805 64.1708 54.5024 62.8044 55.1521 61.2643C56.0224 59.1991 55.9832 57.1525 54.8901 55.1948Z" fill="#B82025" stroke="black" stroke-width="1.87221"/>
<circle cx="49.2145" cy="58.3331" r="2.63532" fill="white" stroke="black" stroke-width="1.87221"/>
<path fill-rule="evenodd" clip-rule="evenodd" d="M23.938 56.9802C22.6943 54.7517 20.7391 53.6395 18.1919 53.5713C18.0331 53.5775 17.8743 53.5837 17.7175 53.5961C17.6268 53.6023 17.536 53.6126 17.4453 53.625C15.8324 53.8462 14.4712 54.5615 13.409 55.7915C11.858 57.5859 11.3857 59.6656 11.9344 61.9705C12.1489 62.8739 12.5655 63.6988 13.0233 64.5009C14.1639 66.4916 15.686 68.1578 17.4226 69.6339C17.9052 70.0432 18.592 70.0411 19.0767 69.6359C19.9615 68.8959 20.7824 68.0896 21.5393 67.2152C22.6283 65.9562 23.5502 64.5898 24.1999 63.0497C25.0703 60.9845 25.0311 58.9379 23.938 56.9802Z" fill="#B82025" stroke="black" stroke-width="1.87221"/>
<circle cx="18.2619" cy="60.119" r="2.63532" fill="white" stroke="black" stroke-width="1.87221"/>
</svg>
