<svg width="101" height="117" viewBox="0 0 101 117" fill="none" xmlns="http://www.w3.org/2000/svg">
<rect x="0.67334" width="100" height="116.667" fill="white"/>
<path d="M73.2925 27.3809L88.1734 40.755C83.0714 56.9344 81.3925 46.5178 80.5422 40.755C78.8469 46.0783 75.9634 39.4502 76.5521 34.8834C73.2925 39.4502 73.387 29.6642 73.2925 27.3809Z" fill="#B82025" stroke="#333333" stroke-width="1.87221" stroke-linejoin="round"/>
<path d="M7.27746 104.868C7.20412 106.419 7.856 107.899 9.19092 109.212" stroke="#333333" stroke-width="1.87221" stroke-linecap="round" stroke-linejoin="round"/>
<path d="M82.2074 94.5252C67.7676 101.853 52.8817 95.3437 37.6632 89.8777C22.4447 84.4116 9.81667 91.6565 8.19755 99.7465" stroke="#333333" stroke-width="1.87221" stroke-linecap="round" stroke-linejoin="round"/>
<path d="M36.9827 47.6191C9.30409 28.2738 30.8899 9.84188 56.0303 19.0477C81.1707 28.2535 90.1277 16.6432 91.0809 9.32876" stroke="#333333" stroke-width="1.87221" stroke-linecap="round" stroke-linejoin="round"/>
<path d="M92.0607 2.38114C91.2286 2.38114 90.554 3.05571 90.554 3.88783C90.554 4.71996 91.2286 5.39453 92.0607 5.39453C92.8928 5.39453 93.5674 4.71996 93.5674 3.88783C93.5674 3.05571 92.8928 2.38114 92.0607 2.38114Z" stroke="#333333" stroke-width="1.87221" stroke-linecap="round" stroke-linejoin="round"/>
<path d="M14.6798 7.14261C13.8477 7.14261 13.1731 7.81718 13.1731 8.64931C13.1731 9.48143 13.8477 10.156 14.6798 10.156C15.512 10.156 16.1865 9.48143 16.1865 8.64931C16.1865 7.81718 15.512 7.14261 14.6798 7.14261Z" stroke="#333333" stroke-width="1.87221" stroke-linecap="round" stroke-linejoin="round"/>
<path d="M12.3449 110.396C11.5173 110.483 10.9168 111.224 11.0036 112.052C11.0904 112.88 11.8317 113.48 12.6592 113.393C13.4868 113.306 14.0873 112.565 14.0005 111.738C13.9137 110.91 13.1725 110.31 12.3449 110.396Z" stroke="#333333" stroke-width="1.87221" stroke-linecap="round" stroke-linejoin="round"/>
<path d="M7.53676 77.9761C6.70463 77.9761 6.03007 78.6507 6.03007 79.4828C6.03007 80.3149 6.70463 80.9895 7.53676 80.9895C8.36888 80.9895 9.04346 80.3149 9.04346 79.4828C9.04346 78.6507 8.36888 77.9761 7.53676 77.9761Z" stroke="#333333" stroke-width="1.87221" stroke-linecap="round" stroke-linejoin="round"/>
<path d="M63.7683 73.5119L33.4111 72.6191L45.9111 68.4524L86.6849 69.9405L63.7683 73.5119Z" fill="white" stroke="#333333" stroke-width="1.87221" stroke-linejoin="round"/>
<path d="M37.8755 63.3929L47.6969 30.3572C55.2379 30.3573 81.9231 32.7381 88.4707 33.631C88.4707 44.8132 88.0672 61.9161 86.9826 69.9404C76.5659 69.9404 54.8397 68.6806 45.8107 68.6806C43.2077 66.8169 42.2137 66.7579 37.8755 63.3929Z" fill="white" stroke="#333333" stroke-width="1.87221" stroke-linejoin="round"/>
<path d="M33.4111 72.6184L34.8992 46.1303C34.8992 46.1303 44.423 32.7374 47.6968 30.3564L45.8405 68.6795C42.042 69.3445 33.4111 72.6184 33.4111 72.6184Z" fill="white" stroke="#333333" stroke-width="1.87221" stroke-linejoin="round"/>
<path d="M73.4966 32.142C72.1951 32.142 62.651 30.9905 62.1087 31.2493V42.2774L64.549 39.9478L67.8026 42.2774L71.0563 39.9478L73.4966 42.5586V32.142Z" fill="#B82025"/>
<path d="M62.1087 31.2493H61.1726C61.1726 30.8886 61.3799 30.5599 61.7055 30.4045L62.1087 31.2493ZM73.4966 32.142V31.2059C74.0136 31.2059 74.4327 31.625 74.4327 32.142H73.4966ZM73.4966 42.5586H74.4327C74.4327 42.9429 74.1977 43.2883 73.8402 43.4293C73.4826 43.5704 73.0752 43.4786 72.8127 43.1978L73.4966 42.5586ZM62.1087 42.2774L62.7551 42.9545C62.4841 43.2132 62.0849 43.2854 61.7405 43.138C61.396 42.9906 61.1726 42.6521 61.1726 42.2774H62.1087ZM71.0563 39.9478L70.5114 39.1866C70.8935 38.913 71.4193 38.9652 71.7402 39.3086L71.0563 39.9478ZM64.549 39.9478L63.9026 39.2707C64.2279 38.9601 64.7282 38.9248 65.0939 39.1866L64.549 39.9478ZM67.8026 42.2774L68.3476 43.0385C68.0218 43.2718 67.5835 43.2718 67.2577 43.0385L67.8026 42.2774ZM61.7055 30.4045C61.8464 30.3373 61.9795 30.314 62.0382 30.3047C62.1142 30.2926 62.1902 30.2861 62.2576 30.2822C62.3932 30.2743 62.5521 30.2739 62.7203 30.2775C63.0596 30.2847 63.5006 30.3098 64.0012 30.3459C65.0056 30.4184 66.3005 30.5392 67.6089 30.667C68.9251 30.7955 70.2464 30.9303 71.3336 31.0343C72.4439 31.1405 73.2277 31.2059 73.4966 31.2059V33.0781C73.1148 33.0781 72.2174 32.9996 71.1553 32.898C70.0699 32.7942 68.7273 32.6573 67.427 32.5303C66.1189 32.4025 64.8448 32.2839 63.8664 32.2133C63.3756 32.1779 62.9719 32.1555 62.6804 32.1493C62.5331 32.1461 62.4301 32.1475 62.3657 32.1512C62.3331 32.1531 62.3246 32.1549 62.3326 32.1536C62.3371 32.1529 62.3538 32.1501 62.3787 32.1436C62.4006 32.1378 62.4501 32.1237 62.512 32.0941L61.7055 30.4045ZM74.4327 32.142V42.5586H72.5605V32.142H74.4327ZM61.1726 42.2774V31.2493H63.0448V42.2774H61.1726ZM72.8127 43.1978L70.3724 40.587L71.7402 39.3086L74.1805 41.9194L72.8127 43.1978ZM65.1954 40.6249L62.7551 42.9545L61.4623 41.6003L63.9026 39.2707L65.1954 40.6249ZM71.6013 40.7089L68.3476 43.0385L67.2577 41.5163L70.5114 39.1866L71.6013 40.7089ZM67.2577 43.0385L64.004 40.7089L65.0939 39.1866L68.3476 41.5163L67.2577 43.0385Z" fill="#333333"/>
<path d="M69.2368 52.3953C72.4506 52.1593 79.9165 51.6873 84.0698 51.6873L84.0698 61.5996C79.9166 62.166 72.945 62.7796 69.9785 63.0156C69.3851 58.4843 69.2368 54.0473 69.2368 52.3953Z" fill="white"/>
<path fill-rule="evenodd" clip-rule="evenodd" d="M85.09 55.8366C85.1144 55.5814 84.9175 55.3538 84.6501 55.3282C80.4949 54.9305 73.0006 54.6888 69.78 54.6175C69.526 54.6119 69.312 54.7941 69.2889 55.0355C69.13 56.6955 68.8539 61.146 69.0135 65.7359C69.0222 65.9849 69.2348 66.1848 69.4955 66.1889C72.4713 66.2367 79.4823 66.2903 83.6862 66.1216C83.9278 66.1119 84.1236 65.9338 84.1456 65.7039L85.09 55.8366ZM84.0774 56.2081L83.2159 65.2093C79.2229 65.35 73.0492 65.311 69.971 65.2672C69.8551 61.2346 70.0668 57.3761 70.2189 55.5567C73.5069 55.6359 80.0792 55.8575 84.0774 56.2081Z" fill="#333333"/>
<path d="M73.0403 58.1217L82.1682 58.4489C82.5427 58.4623 82.8305 58.7748 82.7964 59.131C82.7652 59.4571 82.4737 59.7015 82.1309 59.6892L73.003 59.3621C72.6285 59.3487 72.3407 59.0362 72.3748 58.68C72.406 58.3539 72.6974 58.1094 73.0403 58.1217Z" fill="#333333"/>
<path d="M73.2091 61.2416L78.4479 61.2429C78.831 61.243 79.1332 61.5591 79.0983 61.9233C79.068 62.2396 78.7916 62.4804 78.4589 62.4803L73.2202 62.4791C72.8371 62.479 72.5349 62.1628 72.5698 61.7986C72.6001 61.4823 72.8765 61.2415 73.2091 61.2416Z" fill="#333333"/>
<path d="M31.9232 48.8096L11.0898 73.512" stroke="#333333" stroke-width="1.87221" stroke-linecap="round" stroke-linejoin="round"/>
<path d="M14.6612 74.7026L12.2803 76.4884" stroke="#333333" stroke-width="1.87221" stroke-linecap="round" stroke-linejoin="round"/>
<path d="M30.4355 73.2148L13.4712 79.7624M31.3283 61.9053L17.9355 72.3219" stroke="#333333" stroke-width="1.87221" stroke-linecap="round" stroke-linejoin="round"/>
<path d="M55.4353 75.2981L18.2329 81.2505" stroke="#333333" stroke-width="1.87221" stroke-linecap="round" stroke-linejoin="round"/>
<path d="M17.9351 29.1667L41.1493 42.4403C33.1902 58.4981 30.5711 48.1598 29.2446 42.4403C26.6 47.7236 22.1017 41.1453 23.0201 36.6129C17.9351 41.1453 18.0825 31.433 17.9351 29.1667Z" fill="#B82025" stroke="#333333" stroke-width="1.87221" stroke-linejoin="round"/>
</svg>
