<svg width="315" height="163" viewBox="0 0 315 163" fill="none" xmlns="http://www.w3.org/2000/svg">
<path d="M15.6885 153.999L15.6874 154C13.7743 155.439 13.6859 158.287 15.4972 159.844L15.4984 159.845L16.5015 160.704L16.5033 160.706C18.0191 161.998 20.1212 162.359 21.9766 161.623C21.9769 161.623 21.9772 161.623 21.9775 161.623L21.6087 160.694C30.8812 157.025 64.2085 143.778 82.4991 135.732L15.6885 153.999ZM15.6885 153.999C22.1728 149.133 39.1436 136.363 55.4753 123.821C63.6416 117.549 71.6447 111.337 78.0961 106.199C84.5696 101.043 89.425 97.012 91.3413 95.0812L91.8616 94.557M15.6885 153.999L91.8616 94.557M91.8616 94.557L92.5156 94.9001M91.8616 94.557L92.5156 94.9001M92.5156 94.9001L137.167 118.323L139.606 119.603M92.5156 94.9001L139.606 119.603M139.606 119.603L136.914 120.186M139.606 119.603L136.914 120.186M136.914 120.186L136.702 119.209L136.914 120.186Z" fill="white" stroke="black" stroke-width="2"/>
<path d="M92.0513 95.7856C84.1861 103.706 29.2595 145.06 16.2889 154.799C15.3906 155.472 15.0462 156.568 15.2558 157.568C21.539 153 88.488 104.158 92.0513 95.7856Z" fill="black"/>
<path d="M40.548 142.215C40.548 142.215 53.249 143.763 55.5198 147.07C57.7855 150.371 60.0713 153.09 58.8236 154.135C57.576 155.181 36.6004 143.26 40.548 142.215Z" fill="black"/>
<path d="M55.5198 147.065C53.254 143.763 40.5479 142.21 40.5479 142.21C40.5479 142.21 54.4618 150.577 55.7095 150.784C55.7095 150.789 54.0126 147.683 55.5198 147.065Z" fill="black"/>
<path d="M65.5358 132.029C65.5358 132.029 78.2369 133.576 80.5077 136.883C82.7734 140.185 85.059 142.904 83.8114 143.949C82.5687 144.994 61.5933 133.074 65.5358 132.029Z" fill="black"/>
<path d="M80.5077 136.883C78.2419 133.581 65.5359 132.029 65.5359 132.029C65.5359 132.029 79.4496 140.396 80.6973 140.602C80.6973 140.602 79.0055 137.496 80.5077 136.883Z" fill="black"/>
<path d="M90.529 122.4C90.529 122.4 103.23 123.948 105.501 127.254C107.767 130.556 110.052 133.275 108.805 134.32C107.557 135.365 86.5814 123.445 90.529 122.4Z" fill="black"/>
<path d="M105.496 127.254C103.23 123.953 90.5241 122.4 90.5241 122.4C90.5241 122.4 104.438 130.767 105.686 130.973C105.686 130.978 103.994 127.873 105.496 127.254Z" fill="black"/>
<path d="M187.013 142.808L202.314 130.596L226.743 132.074L193.975 145.321C193.495 145.517 192.981 145.612 192.462 145.612C191.25 145.607 188.944 145.517 187.387 144.979C186.449 144.657 186.239 143.426 187.013 142.808Z" fill="#EFEFEF"/>
<path d="M193.969 145.321L226.738 132.074L203.337 130.662L188.115 142.813C187.342 143.431 187.557 144.658 188.485 144.979C189.757 145.416 191.529 145.557 192.797 145.597C193.196 145.562 193.595 145.472 193.969 145.321Z" fill="black"/>
<path d="M203.531 101.324L219.776 56.678L230.77 61.5978L234.313 120.144L203.531 101.324Z" fill="black"/>
<path d="M210.019 101.771L223.893 58.1855L233.28 62.9898L236.31 120.144L210.019 101.771Z" fill="#B82025"/>
<path d="M208.023 101.771L221.897 58.1855L231.284 62.9898L234.313 120.144L208.023 101.771Z" fill="#ECECEC"/>
<path d="M208.023 101.771L221.897 58.1855L231.284 62.9898L234.313 120.144L208.023 101.771Z" fill="white"/>
<path d="M252.192 130.355L252.193 130.355C253.212 129.546 253.677 128.469 253.511 127.241C253.359 126.113 252.688 124.974 251.759 123.867C249.888 121.637 246.581 119.09 242.387 116.38C233.964 110.937 221.612 104.62 208.922 98.6278C196.22 92.6302 183.14 86.9387 173.237 82.7477C168.285 80.6519 164.126 78.9307 161.204 77.7333C159.744 77.1346 158.592 76.6668 157.806 76.3486C157.413 76.1894 157.111 76.0677 156.907 75.9857L156.676 75.8928L156.617 75.8692L156.602 75.8633L156.598 75.8618C156.597 75.8614 156.597 75.8612 156.226 76.7897L156.597 75.8612L156.594 75.8602L156.233 76.7716C156.594 75.8602 156.594 75.8601 156.594 75.8599L156.592 75.8592L156.585 75.8564L156.556 75.8451L156.444 75.8004L156.004 75.6258L154.322 74.9585L148.231 72.5414C143.139 70.5207 136.227 67.7775 128.945 64.8873C114.381 59.1067 98.3393 52.7385 92.4258 50.3867C90.4355 49.5952 87.6603 48.4071 84.354 46.9917C78.013 44.277 69.7189 40.7263 61.2638 37.5336C54.8018 35.0936 48.181 32.8359 42.1454 31.2735C36.1327 29.7169 30.6084 28.825 26.3755 29.1827C18.1261 29.8799 13.9664 32.1376 11.8878 34.432C10.8484 35.5793 10.3619 36.7024 10.1416 37.5665C10.0813 37.8027 10.0413 38.0183 10.0151 38.2085C9.60023 38.326 9.0405 38.5043 8.40349 38.7593C7.07236 39.2921 5.35205 40.1805 3.92117 41.594C2.47406 43.0237 1.32263 44.9945 1.18929 47.6278C1.05708 50.2383 1.9314 53.3792 4.28595 57.1613M252.192 130.355L5.13489 56.6328M252.192 130.355C251.894 130.591 251.448 130.774 251.016 130.925M252.192 130.355L251.016 130.925M4.28595 57.1613L5.13489 56.6328M4.28595 57.1613C4.2859 57.1613 4.28587 57.1612 4.28583 57.1611L5.13489 56.6328M4.28595 57.1613C5.5247 59.1521 7.68916 61.2292 10.4337 63.3283C13.1942 65.4396 16.6107 67.6247 20.4261 69.8167C28.0576 74.2011 37.3536 78.6522 46.3415 82.6339C55.3335 86.6174 64.0365 90.1396 70.4902 92.6656C73.7175 93.9288 76.3834 94.9432 78.243 95.6421C79.1729 95.9915 79.9012 96.2621 80.3974 96.4454C80.6164 96.5263 80.7902 96.5902 80.9162 96.6364M5.13489 56.6328C14.2777 71.3271 81.5012 95.7856 81.5012 95.7856M80.9162 96.6364C80.9089 96.6281 80.9018 96.6199 80.8949 96.6121C80.8595 96.5715 80.83 96.5377 80.8069 96.5112L80.7615 96.459L80.7498 96.4456L80.7468 96.4421L80.746 96.4411L80.7458 96.4409C80.7457 96.4408 80.7457 96.4408 81.5012 95.7856M80.9162 96.6364C80.936 96.6591 80.9575 96.6837 80.9806 96.7101C81.1315 96.8825 81.3502 97.1315 81.6222 97.4387C82.1662 98.0532 82.9241 98.9015 83.7802 99.8371C85.4832 101.698 87.6063 103.94 89.206 105.363C89.6869 105.79 90.5558 106.333 91.6362 106.937C92.744 107.557 94.1556 108.286 95.7848 109.086C99.0446 110.687 103.207 112.588 107.62 114.497C116.427 118.305 126.311 122.174 132.029 123.722M80.9162 96.6364C80.9329 96.6426 80.9488 96.6484 80.9639 96.6539L81.1094 96.7072L81.1465 96.7207L81.1559 96.7242L81.1584 96.725C81.159 96.7253 81.1593 96.7254 81.5012 95.7856M81.5012 95.7856L132.029 123.722M132.029 123.722L132.291 122.757L132.029 123.722C132.029 123.722 132.029 123.722 132.029 123.722ZM251.016 130.925C250.544 131.09 249.945 131.263 249.239 131.441M251.016 130.925L249.239 131.441M249.239 131.441C247.825 131.798 245.928 132.188 243.65 132.58M249.239 131.441L243.65 132.58M243.65 132.58C239.092 133.364 232.966 134.164 226.049 134.72M243.65 132.58L226.049 134.72M226.049 134.72C212.233 135.829 195.169 135.969 181.117 133.007L226.049 134.72ZM150.386 123.817C150.668 124.777 150.668 124.777 150.667 124.777L150.666 124.777L150.664 124.778L150.657 124.78L150.635 124.786C150.618 124.791 150.593 124.798 150.562 124.806C150.501 124.822 150.413 124.844 150.299 124.871C150.281 124.875 150.261 124.88 150.241 124.884C150.188 124.857 150.14 124.832 150.097 124.808C150.011 124.761 149.945 124.722 149.895 124.691C149.869 124.675 149.848 124.661 149.83 124.648C149.821 124.642 149.812 124.636 149.804 124.63L149.793 124.622L149.788 124.619L149.786 124.617C149.784 124.616 149.783 124.615 150.386 123.817Z" fill="white" stroke="black" stroke-width="2"/>
<path d="M232.382 117.827C232.332 117.827 232.307 117.832 232.307 117.832C232.307 117.832 232.337 117.827 232.382 117.827Z" fill="url(#paint0_linear)"/>
<path d="M251.571 129.571C252.01 129.219 252.294 128.827 252.434 128.395C248.432 130.621 245.537 129.571 245.537 129.571C246.316 125.918 243.98 121.933 243.98 121.933C241.58 117.354 233.235 117.772 232.382 117.827C232.886 117.812 235.786 118.033 237.557 125.008C239.504 132.662 214.79 130.285 189.103 121.933C163.417 113.58 164.974 104.424 164.974 104.424C161.86 92.6697 127.809 80.9103 127.809 80.9103L124.305 86.0663C131.701 91.4184 130.923 97.5644 130.923 97.5644C110.102 92.2727 106.793 83.0662 106.793 83.0662C104.652 85.614 105.82 90.7098 105.82 90.7098C105.82 90.7098 25.1719 58.2056 13.8831 53.7028C2.59933 49.195 5.81334 41.3052 5.81334 41.3052C2.56944 43.6671 -0.11058 48.2251 5.12956 56.6427C14.2773 71.3269 81.5009 95.7854 81.5009 95.7854C81.5009 95.7854 86.751 101.841 89.8701 104.615C92.9893 107.389 121.002 119.701 132.29 122.757C143.574 125.812 150.386 123.817 150.386 123.817C150.386 123.817 153.5 126.169 181.323 132.029C209.151 137.888 249.135 131.501 251.571 129.571Z" fill="black"/>
<path d="M56.7739 52.9237C57.1233 52.906 57.2045 52.675 57.4092 52.5542C58.4043 51.9572 59.5336 51.4882 60.5781 50.9409C61.9297 50.2338 63.3306 49.5693 64.6963 48.8763C66.5913 47.9133 68.4722 46.9361 70.3743 45.9802C70.7307 45.799 71.0836 45.5929 71.5388 45.5254C71.7682 45.4934 71.9447 45.5006 72.1176 45.5681C73.8785 46.2681 75.6465 46.961 77.4003 47.6682C77.5909 47.7463 77.7073 47.892 77.8238 47.9809C77.5838 48.4357 77.0015 48.5814 76.571 48.8159C75.8052 49.2317 75.0007 49.6084 74.2208 50.0099C73.4091 50.4292 72.6151 50.8734 71.7999 51.2891C70.7977 51.8008 69.7779 52.2948 68.7757 52.8065C67.8653 53.2685 66.9301 53.7126 66.0761 54.2172C65.7161 54.4304 65.4303 54.7751 65.6209 55.0736C65.6879 55.1767 65.8538 55.2513 66.0056 55.3117C67.897 56.0651 69.792 56.8078 71.68 57.5646C71.8812 57.6464 72.0576 57.7601 72.2023 57.8773C72.4034 58.0443 72.3681 58.2149 72.0788 58.3855C71.4259 58.7657 70.8013 59.1672 70.0567 59.4693C69.7108 59.6114 69.4286 59.8318 69.0933 59.9846C68.2182 60.3968 67.41 60.8765 66.4431 61.2105C66.0444 61.3491 65.8009 61.2887 65.5115 61.2603C65.3809 61.2496 65.2821 61.1786 65.1657 61.1324C62.2685 59.9846 59.3818 58.8332 56.4705 57.6996C55.8317 57.4545 55.4647 57.0635 55.1506 56.662C54.8613 56.2924 54.7201 55.8518 54.886 55.365C55.0448 54.8924 55.2318 54.4198 55.7117 53.9791C55.7647 53.9329 55.7506 53.8619 55.7647 53.7979C56.0964 53.5136 56.4387 53.2187 56.7739 52.9237Z" fill="#B82025"/>
<path d="M107.1 64.5404C107.911 64.9171 108.892 65.1658 109.591 65.6775C110.06 66.0222 110.72 66.2674 111.482 66.3882C112.068 66.4806 112.633 66.6014 113.201 66.7116C113.755 66.8217 114.291 66.9497 114.81 67.0954C115.784 67.3655 116.822 67.6 117.45 68.1685C117.492 68.2041 117.542 68.2467 117.605 68.268C118.392 68.5558 118.692 69.0853 118.995 69.6184C119.214 69.995 119.302 70.3894 119.246 70.83C119.175 71.3915 118.918 71.9281 118.396 72.4469C118.297 72.5464 118.223 72.6566 118.12 72.7525C117.933 72.9195 117.732 73.0795 117.531 73.2465C117.471 73.2927 117.383 73.3246 117.333 73.3744C116.832 73.8648 116.088 74.181 115.407 74.547C113.96 75.3217 112.509 76.0999 111.066 76.8781C110.459 77.205 109.87 77.5426 109.273 77.8731C108.765 78.1502 108.49 78.1716 108.017 78.001C106.863 77.5782 105.691 77.173 104.562 76.7324C103.906 76.4765 103.32 76.1567 102.674 75.8476C102.671 75.5597 103.098 75.4069 103.401 75.2364C104.552 74.6038 105.727 73.9962 106.888 73.3744C107.156 73.2322 107.421 73.0865 107.689 72.9444C108.529 72.4967 109.379 72.0595 110.205 71.5976C110.801 71.2671 110.981 70.8372 110.353 70.6026C109.686 70.3503 108.998 70.1194 108.292 69.8991C107.961 69.7996 107.583 69.9452 107.265 70.1016C106.711 70.3752 106.179 70.6631 105.642 70.9545C104.894 71.3596 104.153 71.7647 103.405 72.1698C102.177 72.8307 100.945 73.4951 99.71 74.1561C99.1489 74.4581 99.0854 74.4582 98.6055 74.2805C97.4233 73.8434 96.22 73.4206 95.0519 72.9693C94.4873 72.749 93.9791 72.486 93.4533 72.2337C93.1816 72.1022 93.2416 71.9281 93.5945 71.7433C94.8508 71.0753 96.1071 70.4143 97.3563 69.7392C99.0325 68.833 100.695 67.9198 102.371 67.0208C103.302 66.5233 104.255 66.0471 105.194 65.5567C105.801 65.2369 106.397 64.9135 107.1 64.5404Z" fill="#B82025"/>
<path d="M83.0146 68.4168C82.7887 68.3244 82.5629 68.2392 82.3371 68.1468C82.2418 68.1077 82.1112 68.0828 82.0583 68.0224C81.7618 67.667 81.2467 67.4396 80.8832 67.1305C80.6467 66.9279 80.4738 66.6756 80.3503 66.4233C80.1103 65.9329 79.888 65.439 79.941 64.8669C80.0115 64.0567 80.3821 63.2998 81.1831 62.5429C82.0406 61.7363 83.1416 61.125 84.3873 60.624C84.966 60.3894 85.6012 60.2189 86.2153 60.0483C87.8986 59.5828 89.5713 59.4052 91.2405 59.3732C92.1827 59.3554 93.1214 59.3555 94.0107 59.455C94.84 59.5509 95.6798 59.6362 96.4138 59.8707C96.9008 60.0271 97.4831 60.1017 97.9348 60.2794C98.5171 60.5174 98.9899 60.8443 99.5475 61.1002C100.327 61.4591 100.79 61.9815 101.185 62.5287C101.81 63.3922 101.817 64.3871 101.22 65.4283C100.917 65.9613 100.447 66.4837 99.731 66.9492C99.1487 67.3294 98.5382 67.6742 97.8889 67.9798C97.2784 68.2676 96.5903 68.4772 95.9198 68.6904C94.8858 69.0209 93.813 69.1915 92.7579 69.3443C91.2899 69.5575 89.8466 69.5753 88.4456 69.4936C88.1386 69.4758 87.8104 69.4864 87.4963 69.4829C87.4363 69.4793 87.3763 69.4757 87.3198 69.4686C86.4729 69.3052 85.6048 69.163 84.7826 68.9747C84.1509 68.829 83.5757 68.6123 82.9723 68.4311C82.997 68.4346 83.004 68.4274 83.0146 68.4168ZM88.5338 65.709C88.7455 65.7943 88.9714 65.9507 89.2678 65.9863C90.016 66.0715 90.7817 66.1461 91.618 66.0217C92.3803 65.908 93.1179 65.6771 93.686 65.2898C94.0389 65.0481 94.2788 64.7069 94.2894 64.3836C94.2965 64.1348 93.8483 63.5485 93.6154 63.4348C92.9202 63.1043 92.1403 62.8876 91.1628 62.8911C90.2664 62.8982 89.3736 62.9799 88.5338 63.385C87.8174 63.7297 87.2246 64.3196 87.4328 64.8988C87.5774 65.3004 87.9338 65.5456 88.5338 65.709Z" fill="#B82025"/>
<path d="M82.2982 54.7395C84.3343 55.5462 86.2858 56.3173 88.2655 57.1026C88.1032 57.2803 87.9268 57.4153 87.6762 57.5468C86.247 58.2895 84.8355 59.05 83.424 59.8104C81.9242 60.6171 80.442 61.4343 78.9422 62.2409C77.6189 62.9481 76.285 63.6517 74.9546 64.3517C74.3723 64.6609 74.3335 64.6573 73.8006 64.4548C72.6043 64.0106 71.3833 63.5842 70.1976 63.1294C69.633 62.909 69.1319 62.639 68.5955 62.3973C68.3908 62.3049 68.4226 62.1806 68.6132 62.0526C68.839 61.9034 69.086 61.7612 69.333 61.6262C70.5364 60.9688 71.7433 60.3079 72.9537 59.6576C73.9171 59.1423 74.8981 58.6377 75.8615 58.1225C77.3472 57.3301 78.8258 56.5305 80.3185 55.7452C80.9643 55.3934 81.6347 55.0735 82.2982 54.7395Z" fill="#B82025"/>
<path d="M86.568 55.3295C85.6716 54.9386 85.0787 54.5548 84.807 53.9969C84.4964 53.3643 85.0293 52.5577 86.0845 52.0709C86.9102 51.6871 87.7572 51.6232 88.6041 51.5095C89.5075 51.3886 90.3121 51.5237 91.0814 51.6871C91.4661 51.7689 91.8225 51.8861 92.1683 52.007C92.9306 52.277 93.3999 52.7141 93.6716 53.2506C93.8727 53.6451 93.8128 54.068 93.4246 54.4944C93.2693 54.665 92.9976 54.8106 92.747 54.9421C91.9566 55.3614 91.0708 55.5498 90.1674 55.6564C89.4087 55.7452 88.6853 55.7061 87.9971 55.6173C87.429 55.5497 86.9067 55.4005 86.568 55.3295Z" fill="#B82025"/>
<path d="M72.8525 54.497L72.0791 54.1854C71.6099 53.9945 71.2955 53.5422 71.2805 53.0296L71.2256 50.9441C71.2006 50.0244 72.1189 49.3812 72.9723 49.7229L73.7958 50.0546C74.2799 50.2506 74.5942 50.7179 74.5942 51.2456V53.311C74.5992 54.2156 73.6909 54.8337 72.8525 54.497Z" fill="black"/>
<path d="M78.9312 56.9794L78.1577 56.6679C77.6886 56.4769 77.3741 56.0246 77.3591 55.512L77.3043 53.4265C77.2793 52.5068 78.1976 51.8636 79.046 52.2053L79.8694 52.537C80.3535 52.733 80.6679 53.2003 80.6679 53.728V55.7935C80.6729 56.698 79.7647 57.3161 78.9312 56.9794Z" fill="black"/>
<path d="M85.0045 59.457L84.2309 59.1454C83.7618 58.9544 83.4474 58.5021 83.4325 57.9896L83.3775 55.904C83.3526 54.9844 84.2708 54.3411 85.1192 54.6829L85.9426 55.0145C86.4267 55.2105 86.7412 55.6779 86.7412 56.2055V58.271C86.7462 59.1755 85.8379 59.7937 85.0045 59.457Z" fill="black"/>
<path d="M91.0781 61.9394L90.3046 61.6278C89.8355 61.4369 89.5211 60.9846 89.5061 60.472L89.4512 58.3865C89.4262 57.4668 90.3445 56.8236 91.1929 57.1653L92.0164 57.497C92.5005 57.6929 92.8149 58.1603 92.8149 58.688V60.7534C92.8248 61.658 91.9116 62.2761 91.0781 61.9394Z" fill="black"/>
<path d="M97.1519 64.4221L96.3783 64.1105C95.9092 63.9195 95.5947 63.4672 95.5798 62.9547L95.5249 60.8691C95.5 59.9495 96.4182 59.3062 97.2666 59.6479L98.09 59.9796C98.5741 60.1756 98.8886 60.643 98.8886 61.1706V63.2361C98.8986 64.1406 97.9903 64.7588 97.1519 64.4221Z" fill="black"/>
<path d="M54.4423 47.1096L53.6688 46.798C53.1997 46.607 52.8852 46.1547 52.8702 45.6422L52.8154 43.5566C52.7904 42.637 53.7087 41.9937 54.5621 42.3354L55.3855 42.6671C55.8696 42.8631 56.1841 43.3305 56.1841 43.8581V45.9236C56.1891 46.8281 55.2758 47.4463 54.4423 47.1096Z" fill="black"/>
<path d="M60.5156 49.592L59.7421 49.2804C59.273 49.0895 58.9586 48.6372 58.9436 48.1246L58.8887 46.039C58.8637 45.1194 59.782 44.4761 60.6304 44.8179L61.4539 45.1495C61.938 45.3455 62.2524 45.8129 62.2524 46.3406V48.406C62.2623 49.3106 61.3541 49.9287 60.5156 49.592Z" fill="black"/>
<path d="M66.5894 52.0747L65.8158 51.7631C65.3467 51.5721 65.0322 51.1198 65.0173 50.6072L64.9624 48.5217C64.9375 47.6021 65.8557 46.9588 66.7041 47.3005L67.5275 47.6322C68.0116 47.8282 68.3261 48.2956 68.3261 48.8232V50.8887C68.3361 51.7882 67.4278 52.4114 66.5894 52.0747Z" fill="black"/>
<path d="M103.226 66.8996L102.457 66.588C101.988 66.3971 101.673 65.9448 101.658 65.4322L101.604 63.3467C101.579 62.427 102.497 61.7838 103.345 62.1255L104.169 62.4572C104.653 62.6532 104.967 63.1205 104.967 63.6482V65.7136C104.972 66.6182 104.064 67.2363 103.226 66.8996Z" fill="black"/>
<path d="M109.304 69.382L108.535 69.0704C108.066 68.8795 107.752 68.4272 107.737 67.9146L107.682 65.8291C107.657 64.9094 108.575 64.2662 109.429 64.6079L110.252 64.9396C110.736 65.1356 111.051 65.6029 111.051 66.1306V68.196C111.046 69.1006 110.138 69.7187 109.304 69.382Z" fill="black"/>
<path d="M115.377 71.8647L114.609 71.5531C114.14 71.3621 113.825 70.9099 113.81 70.3973L113.755 68.3117C113.73 67.3921 114.649 66.7488 115.502 67.0906L116.326 67.4222C116.81 67.6182 117.124 68.0856 117.124 68.6133V70.6787C117.119 71.5782 116.211 72.2014 115.377 71.8647Z" fill="black"/>
<path d="M121.451 74.3422L120.678 74.0307C120.208 73.8397 119.894 73.3874 119.879 72.8748L119.824 70.7893C119.799 69.8696 120.718 69.2264 121.571 69.5681L122.394 69.8998C122.878 70.0958 123.193 70.5631 123.193 71.0908V73.1562C123.198 74.0608 122.285 74.6789 121.451 74.3422Z" fill="black"/>
<path d="M127.524 76.8247L126.751 76.5131C126.282 76.3221 125.967 75.8698 125.952 75.3572L125.897 73.2717C125.872 72.3521 126.791 71.7088 127.644 72.0505L128.468 72.3822C128.952 72.5782 129.266 73.0456 129.266 73.5732V75.6387C129.271 76.5432 128.363 77.1614 127.524 76.8247Z" fill="black"/>
<path d="M133.598 79.3073L132.825 78.9958C132.356 78.8048 132.041 78.3525 132.026 77.8399L131.971 75.7544C131.946 74.8347 132.864 74.1915 133.718 74.5332L134.541 74.8649C135.025 75.0609 135.34 75.5282 135.34 76.0559V78.1213C135.345 79.0209 134.437 79.644 133.598 79.3073Z" fill="black"/>
<path d="M139.677 81.7849L138.908 81.4733C138.439 81.2823 138.125 80.83 138.11 80.3175L138.055 78.2319C138.03 77.3123 138.948 76.669 139.801 77.0107L140.625 77.3424C141.109 77.5384 141.423 78.0058 141.423 78.5334V80.5989C141.418 81.5034 140.51 82.1216 139.677 81.7849Z" fill="black"/>
<path d="M145.75 84.2673L144.982 83.9557C144.513 83.7647 144.198 83.3125 144.183 82.7999L144.128 80.7143C144.103 79.7947 145.022 79.1514 145.875 79.4932L146.699 79.8248C147.183 80.0208 147.497 80.4882 147.497 81.0159V83.0813C147.492 83.9859 146.584 84.604 145.75 84.2673Z" fill="black"/>
<path d="M151.824 86.7499L151.056 86.4384C150.586 86.2474 150.272 85.7951 150.257 85.2825L150.202 83.197C150.177 82.2773 151.095 81.6341 151.949 81.9758L152.772 82.3075C153.256 82.5035 153.571 82.9709 153.571 83.4985V85.5639C153.571 86.4635 152.658 87.0866 151.824 86.7499Z" fill="black"/>
<path d="M157.897 89.2275L157.129 88.9159C156.66 88.7249 156.345 88.2727 156.33 87.7601L156.275 85.6745C156.25 84.7549 157.169 84.1116 158.022 84.4534L158.846 84.785C159.33 84.981 159.644 85.4484 159.644 85.9761V88.0415C159.644 88.9461 158.736 89.5642 157.897 89.2275Z" fill="black"/>
<path d="M163.971 91.7099L163.203 91.3983C162.733 91.2074 162.419 90.7551 162.404 90.2425L162.349 88.157C162.324 87.2373 163.242 86.5941 164.096 86.9358L164.919 87.2675C165.403 87.4635 165.718 87.9308 165.718 88.4585V90.5239C165.718 91.4285 164.809 92.0466 163.971 91.7099Z" fill="black"/>
<path d="M170.045 94.1875L169.276 93.8759C168.807 93.6849 168.493 93.2326 168.478 92.72L168.423 90.6345C168.398 89.7149 169.316 89.0716 170.17 89.4133L170.993 89.745C171.477 89.941 171.792 90.4084 171.792 90.936V93.0015C171.792 93.906 170.883 94.5292 170.045 94.1875Z" fill="black"/>
<path d="M176.123 96.6699L175.355 96.3583C174.886 96.1673 174.571 95.7151 174.556 95.2025L174.501 93.1169C174.477 92.1973 175.395 91.554 176.248 91.8957L177.072 92.2274C177.556 92.4234 177.87 92.8908 177.87 93.4184V95.4839C177.865 96.3885 176.957 97.0066 176.123 96.6699Z" fill="black"/>
<path d="M182.197 99.1525L181.428 98.841C180.959 98.65 180.645 98.1977 180.63 97.6851L180.575 95.5996C180.55 94.6799 181.468 94.0367 182.321 94.3784L183.145 94.7101C183.629 94.9061 183.943 95.3734 183.943 95.9011V97.9665C183.943 98.8711 183.03 99.4892 182.197 99.1525Z" fill="black"/>
<path d="M188.27 101.63L187.502 101.319C187.033 101.128 186.718 100.675 186.703 100.163L186.648 98.0771C186.623 97.1575 187.542 96.5142 188.395 96.856L189.219 97.1876C189.703 97.3836 190.017 97.851 190.017 98.3786V100.444C190.017 101.349 189.104 101.967 188.27 101.63Z" fill="black"/>
<path d="M194.344 104.112L193.575 103.801C193.106 103.61 192.792 103.158 192.777 102.645L192.722 100.56C192.697 99.6399 193.615 98.9966 194.468 99.3384L195.292 99.67C195.776 99.866 196.09 100.333 196.09 100.861V102.926C196.09 103.831 195.182 104.449 194.344 104.112Z" fill="black"/>
<path d="M200.417 106.595L199.649 106.284C199.18 106.093 198.865 105.64 198.85 105.128L198.795 103.042C198.77 102.123 199.689 101.479 200.542 101.821L201.366 102.153C201.85 102.349 202.164 102.816 202.164 103.344V105.409C202.164 106.309 201.256 106.932 200.417 106.595Z" fill="black"/>
<path d="M206.496 109.073L205.727 108.761C205.258 108.57 204.944 108.118 204.929 107.605L204.874 105.52C204.849 104.6 205.767 103.957 206.621 104.299L207.444 104.63C207.928 104.826 208.243 105.294 208.243 105.821V107.887C208.238 108.791 207.329 109.409 206.496 109.073Z" fill="black"/>
<path d="M32.7575 36.5211C36.5055 36.8679 38.7163 37.5061 38.7163 37.5061C36.8149 34.6115 33.6259 33.2596 30.1175 32.7822L32.7575 36.5211Z" fill="black"/>
<path d="M23.1807 32.7671C17.5263 33.3551 12.6605 35.0737 12.6106 35.129C10.789 37.1543 10.9737 39.0036 10.9737 39.0036C15.3354 37.6065 19.4179 36.8728 23.046 36.5412L23.1807 32.7671Z" fill="black"/>
<path d="M28.276 32.6113C27.0583 32.5459 25.8205 32.566 24.6028 32.6465L24.7476 36.4105C27.0083 36.2748 29.0594 36.2899 30.8511 36.3853C29.9578 35.0637 28.9796 33.6264 28.276 32.6113Z" fill="black"/>
<path d="M164.979 104.419C164.535 105.316 164.535 105.315 164.535 105.315L164.534 105.315L164.529 105.312L164.511 105.303L164.44 105.268L164.16 105.13C164.053 105.077 163.924 105.013 163.774 104.938C163.582 104.843 163.356 104.731 163.099 104.603C162.183 104.147 160.872 103.494 159.29 102.703C156.127 101.12 151.88 98.9831 147.547 96.7676C143.215 94.5528 138.793 92.2568 135.28 90.3563C133.524 89.4065 131.989 88.5518 130.803 87.8533C129.656 87.1774 128.739 86.593 128.305 86.1949C126.613 84.6408 126.348 82.4009 126.427 80.7511C126.467 79.9042 126.6 79.1492 126.722 78.6077C126.783 78.3357 126.842 78.1143 126.886 77.9582C126.908 77.8801 126.927 77.8182 126.941 77.7742C126.948 77.7522 126.953 77.7347 126.958 77.7219L126.963 77.7062L126.964 77.7011L126.965 77.6992L126.965 77.6984C126.965 77.6981 126.965 77.6978 127.914 78.0158L126.965 77.6978L127.181 77.0538L127.86 77.0172C129.886 76.9079 133.938 76.0023 139.592 74.4396C145.207 72.8879 152.303 70.7176 160.355 68.1312C176.458 62.959 196.353 56.1336 215.814 49.292C254.764 35.599 291.881 21.8745 293.393 21.2083C293.615 21.1104 294.068 20.7846 294.757 20.1542C295.414 19.5527 296.203 18.7538 297.078 17.8171C298.825 15.9454 300.875 13.5683 302.837 11.2231C304.797 8.88 306.661 6.57845 308.035 4.86197C308.722 4.00394 309.287 3.2926 309.679 2.79599C309.876 2.54769 310.029 2.35309 310.133 2.22071L310.251 2.06987L310.281 2.03144L310.289 2.02182L310.291 2.01946L310.291 2.01889C310.291 2.01878 310.291 2.01874 311.079 2.63492M164.979 104.419C165.555 105.237 165.555 105.237 165.555 105.237L165.556 105.236L165.561 105.232L165.579 105.22L165.651 105.169L165.935 104.969C166.183 104.795 166.548 104.538 167.016 104.21C167.95 103.554 169.293 102.612 170.924 101.471C174.188 99.19 178.605 96.1118 183.225 92.9244C192.498 86.527 202.493 79.7545 205.673 78.0362C208.878 76.305 225.093 68.8286 241.012 61.5005C241.777 61.1483 242.541 60.7965 243.303 60.4458C250.452 57.1548 257.396 53.9585 262.897 51.4048C268.946 48.5963 273.329 46.5294 274.257 45.9887L274.258 45.9885C274.529 45.8306 275.167 45.4646 276.075 44.9434C278.73 43.4207 283.692 40.5739 288.543 37.7285C291.806 35.8143 295.039 33.8886 297.521 32.3452C298.761 31.5743 299.823 30.893 300.611 30.3533C301.004 30.0841 301.34 29.8425 301.6 29.6376C301.818 29.4655 302.101 29.2306 302.266 28.9823L302.266 28.9815C302.365 28.8326 302.482 28.5988 302.595 28.3612C302.719 28.1013 302.872 27.7664 303.048 27.3713C303.4 26.58 303.852 25.5264 304.369 24.3047C305.402 21.8602 306.698 18.726 307.966 15.6357C309.234 12.5448 310.475 9.49495 311.399 7.21807C311.861 6.07958 312.243 5.13421 312.511 4.47343L312.82 3.70711L312.902 3.50544L312.923 3.45373L312.928 3.44084L312.931 3.43218C312.935 3.42225 312.941 3.40934 312.947 3.39377C312.959 3.36277 312.975 3.32057 312.993 3.26992C313.027 3.17109 313.073 3.02859 313.109 2.86766C313.143 2.71503 313.18 2.4993 313.17 2.26782C313.16 2.05625 313.105 1.66259 312.787 1.3423C312.268 0.820455 311.624 1.03041 311.435 1.10813C311.192 1.20831 310.984 1.36452 310.852 1.47233C310.706 1.59155 310.577 1.71504 310.489 1.80381C310.444 1.84935 310.407 1.88849 310.38 1.91709C310.367 1.93144 310.356 1.94328 310.348 1.95211L310.338 1.96309L310.335 1.96679L310.334 1.96819L310.333 1.96876L310.333 1.96902C310.333 1.96914 310.333 1.96926 311.079 2.63492M164.979 104.419L164.535 105.316L165.068 105.579L165.555 105.237L164.979 104.419ZM311.079 2.63492L310.333 1.96926L310.311 1.99333L310.291 2.01874L311.079 2.63492Z" fill="white" stroke="black" stroke-width="2"/>
<path d="M293.796 22.1234C293.427 22.3445 290.747 23.2993 286.375 24.9226C256.032 36.1694 142.965 77.2017 127.913 78.0158C127.913 78.0158 126.436 82.4331 128.577 85.0262C130.998 83.5035 140.021 78.2319 154.918 74.0809C169.949 69.8897 259.631 37.4257 287.293 25.9176C287.293 25.9176 294.779 23.239 295.778 22.234C298.612 19.3795 310.914 2.80078 310.914 2.80078C310.914 2.80078 296.806 20.3344 293.796 22.1234Z" fill="black"/>
<path d="M296.272 97.8611C296.272 97.8611 287.443 95.6399 284.624 96.3485C281.804 97.0571 230.516 115.36 230.516 115.36C230.516 115.36 230.79 119.048 246.506 121.747L296.272 97.8611Z" fill="#EFEFEF"/>
<path d="M231.024 116.259C232.122 117.52 235.586 119.872 246.505 121.747L295.179 98.3888C292.504 97.7908 287.199 96.7304 285.128 97.2531C282.313 97.9566 231.204 116.194 231.024 116.259Z" fill="black"/>
<path d="M83.5122 129.571C83.5122 126.38 82.2346 123.571 80.2933 121.933C80.2035 121.857 80.1136 121.782 80.0238 121.712C65.0619 109.409 52.6004 111.058 52.6004 111.058C52.6004 111.058 48.1338 124.023 48.6827 132.697C55.7145 141.175 76.9446 138.697 76.9446 138.697C80.6177 138.305 83.5122 134.371 83.5122 129.571Z" fill="#B82025"/>
<path d="M76.9397 138.697C78.3221 138.552 79.5897 137.903 80.6377 136.903C80.5928 136.898 80.5529 136.888 80.5079 136.883C68.8549 135.426 57.9354 129.32 49.4764 123.083C48.8825 126.335 48.4932 129.757 48.6778 132.692C55.7096 141.17 76.9397 138.697 76.9397 138.697Z" fill="black"/>
<path d="M52.5953 133.848C47.6644 133.848 43.667 128.745 43.667 122.45C43.667 116.156 47.6644 111.053 52.5953 111.053C57.5262 111.053 61.5234 116.156 61.5234 122.45C61.5234 128.745 57.5262 133.848 52.5953 133.848Z" fill="white"/>
<path d="M50.7241 131.129C46.8268 131.129 43.6673 127.009 43.6673 121.928C43.6673 116.846 46.8268 112.726 50.7241 112.726C54.6214 112.726 57.7808 116.846 57.7808 121.928C57.7808 127.009 54.6214 131.129 50.7241 131.129Z" fill="black"/>
<path d="M176.223 81.9456C176.223 81.9456 188.924 83.4934 191.195 86.8001C193.465 90.1068 195.746 92.8205 194.498 93.8658C193.251 94.9111 172.275 82.9908 176.223 81.9456Z" fill="black"/>
<path d="M191.194 86.8001C188.929 83.4984 176.223 81.9456 176.223 81.9456C176.223 81.9456 190.137 90.3128 191.384 90.5189C191.384 90.5189 189.687 87.4132 191.194 86.8001Z" fill="black"/>
<path d="M209.855 63.99C209.855 63.99 222.556 65.5378 224.826 68.8445C227.092 72.1462 229.378 74.8649 228.13 75.9102C226.883 76.9555 205.907 65.0353 209.855 63.99Z" fill="black"/>
<path d="M224.827 68.8445C222.561 65.5428 209.855 63.99 209.855 63.99C209.855 63.99 223.768 72.3573 225.016 72.5633C225.016 72.5633 223.319 69.4576 224.827 68.8445Z" fill="black"/>
<path d="M246.994 46.6172C246.994 46.6172 259.695 48.165 261.966 51.4717C264.232 54.7734 266.518 57.4921 265.27 58.5374C264.027 59.5827 243.052 47.6625 246.994 46.6172Z" fill="black"/>
<path d="M261.966 51.4666C259.7 48.1649 246.994 46.6121 246.994 46.6121C246.994 46.6121 260.908 54.9793 262.156 55.1854C262.156 55.1904 260.464 52.0847 261.966 51.4666Z" fill="black"/>
<path d="M182.611 83.0913C182.611 79.9002 181.333 77.091 179.392 75.4527C179.302 75.3773 179.212 75.302 179.122 75.2316C164.16 62.9294 151.699 64.5778 151.699 64.5778C151.699 64.5778 147.232 77.5433 147.781 86.2171C154.813 94.6949 176.043 92.2174 176.043 92.2174C179.716 91.8254 182.611 87.8906 182.611 83.0913Z" fill="#B82025"/>
<path d="M176.038 92.2174C177.421 92.0717 178.688 91.4234 179.736 90.4233C179.691 90.4183 179.652 90.4083 179.607 90.4032C167.954 88.9459 157.034 82.84 148.575 76.6035C147.981 79.8549 147.592 83.2772 147.776 86.2121C154.808 94.6899 176.038 92.2174 176.038 92.2174Z" fill="black"/>
<path d="M151.694 87.3679C146.763 87.3679 142.766 82.2651 142.766 75.9703C142.766 69.6756 146.763 64.5728 151.694 64.5728C156.625 64.5728 160.622 69.6756 160.622 75.9703C160.622 82.2651 156.625 87.3679 151.694 87.3679Z" fill="white"/>
<path d="M149.823 84.6542C145.925 84.6542 142.766 80.5346 142.766 75.4527C142.766 70.3709 145.925 66.2512 149.823 66.2512C153.72 66.2512 156.879 70.3709 156.879 75.4527C156.879 80.5346 153.72 84.6542 149.823 84.6542Z" fill="black"/>
<path d="M187.785 116.745C187.785 116.738 187.787 116.727 187.78 116.727C187.7 116.706 187.682 116.658 187.68 116.598C187.697 116.592 187.717 116.583 187.735 116.585C187.878 116.601 188.017 116.566 188.159 116.528C188.294 116.491 188.416 116.437 188.535 116.38C188.634 116.331 188.727 116.273 188.818 116.218C188.862 116.189 188.86 116.175 188.802 116.12C188.785 116.125 188.764 116.134 188.744 116.143C188.561 116.231 188.381 116.322 188.182 116.391C187.982 116.459 187.781 116.506 187.567 116.49C187.481 116.484 187.4 116.481 187.326 116.452C187.201 116.399 187.136 116.305 187.161 116.196C187.262 116.208 187.368 116.212 187.469 116.231C187.591 116.249 187.714 116.234 187.837 116.226C187.94 116.22 188.051 116.196 188.155 116.179C188.239 116.164 188.326 116.145 188.408 116.116C188.45 116.106 188.491 116.088 188.532 116.077C188.577 116.062 188.622 116.047 188.67 116.035C188.725 116.016 188.729 116.012 188.708 115.975C188.702 115.958 188.694 115.944 188.685 115.923C188.657 115.926 188.633 115.932 188.608 115.938C188.491 115.97 188.373 116.002 188.255 116.027C188.022 116.074 187.791 116.109 187.557 116.102C187.443 116.098 187.332 116.091 187.233 116.053C187.204 116.042 187.165 116.042 187.139 116.033C187.062 116.001 186.975 115.981 186.914 115.936C186.812 115.864 186.761 115.768 186.797 115.655C186.811 115.614 186.843 115.575 186.861 115.545C186.958 115.593 187.041 115.657 187.146 115.679C187.287 115.713 187.413 115.773 187.564 115.794C187.92 115.851 188.282 115.853 188.667 115.797C188.667 115.764 188.664 115.729 188.661 115.694C188.529 115.688 188.404 115.674 188.273 115.676C188.167 115.678 188.07 115.662 187.97 115.657C187.845 115.651 187.732 115.615 187.614 115.601C187.399 115.578 187.249 115.485 187.06 115.431C187.056 115.427 187.049 115.428 187.045 115.425C186.935 115.339 186.793 115.266 186.733 115.15C186.672 115.027 186.675 114.899 186.78 114.771C186.809 114.736 186.845 114.701 186.878 114.669C186.887 114.658 186.908 114.649 186.928 114.64C186.999 114.758 187.089 114.853 187.21 114.935C187.244 114.957 187.265 114.994 187.302 115.012C187.448 115.095 187.567 115.202 187.749 115.257C187.841 115.287 187.919 115.334 188.011 115.365C188.171 115.414 188.329 115.474 188.508 115.494C188.562 115.499 188.606 115.517 188.656 115.526C188.674 115.528 188.695 115.526 188.719 115.521C188.728 115.495 188.74 115.472 188.751 115.443C188.696 115.423 188.641 115.403 188.59 115.386C188.499 115.355 188.411 115.321 188.319 115.29C188.228 115.259 188.153 115.216 188.071 115.173C187.993 115.134 187.919 115.098 187.845 115.055C187.666 114.964 187.511 114.861 187.387 114.737C187.266 114.616 187.159 114.494 187.114 114.344C187.084 114.254 187.087 114.165 187.114 114.07C187.119 114.055 187.132 114.039 187.145 114.024C187.177 113.985 187.216 113.946 187.244 113.904C187.291 113.832 187.383 113.792 187.471 113.755C187.502 113.741 187.536 113.731 187.578 113.72C187.582 113.73 187.591 113.744 187.588 113.755C187.594 113.936 187.655 114.098 187.751 114.257C187.808 114.345 187.859 114.44 187.927 114.523C188.034 114.645 188.138 114.771 188.268 114.88C188.356 114.954 188.438 115.036 188.54 115.102C188.593 115.14 188.642 115.174 188.705 115.208C188.753 115.228 188.792 115.268 188.844 115.291C188.95 115.25 188.962 115.22 188.889 115.166C188.733 115.041 188.593 114.911 188.47 114.769C188.363 114.64 188.263 114.51 188.176 114.379C188.069 114.21 188.006 114.027 187.958 113.842C187.935 113.751 187.924 113.663 187.933 113.566C187.94 113.494 187.933 113.416 187.948 113.344C187.966 113.274 187.999 113.203 188.032 113.132C188.091 113.006 188.221 112.919 188.362 112.834C188.481 112.77 188.731 112.718 188.826 112.785C188.794 112.862 188.758 112.937 188.73 113.018C188.696 113.114 188.655 113.211 188.639 113.301C188.61 113.454 188.599 113.608 188.588 113.763C188.584 113.87 188.594 113.976 188.613 114.078C188.635 114.194 188.68 114.304 188.715 114.418C188.73 114.463 188.745 114.516 188.767 114.56C188.819 114.669 188.872 114.779 188.935 114.884C188.977 114.958 189.033 115.031 189.087 115.116C189.127 115.091 189.157 115.07 189.197 115.045C189.18 115.011 189.163 114.977 189.145 114.943C189.098 114.851 189.048 114.763 189.014 114.669C188.957 114.503 188.899 114.337 188.883 114.16C188.878 114.064 188.863 113.973 188.854 113.881C188.85 113.839 188.854 113.795 188.86 113.749C188.88 113.536 188.921 113.329 189.005 113.118C189.051 113.007 189.094 112.892 189.159 112.783C189.213 112.685 189.283 112.593 189.364 112.503C189.47 112.39 189.577 112.277 189.728 112.188C189.859 112.108 189.998 112.042 190.168 112.04C190.303 112.035 190.425 112.052 190.513 112.126C190.517 112.13 190.517 112.137 190.524 112.136C190.607 112.193 190.608 112.193 190.521 112.258C190.362 112.379 190.225 112.506 190.114 112.648C190.082 112.687 190.042 112.719 190.006 112.755C189.994 112.77 189.981 112.785 189.968 112.801C189.93 112.854 189.897 112.911 189.855 112.961C189.791 113.038 189.752 113.117 189.699 113.197C189.64 113.284 189.598 113.374 189.55 113.464C189.48 113.588 189.427 113.714 189.4 113.841C189.372 113.962 189.344 114.082 189.33 114.208C189.317 114.335 189.318 114.459 189.336 114.586C189.345 114.646 189.344 114.71 189.364 114.773C189.384 114.835 189.4 114.894 189.42 114.964C189.469 114.952 189.507 114.945 189.542 114.935C189.693 114.885 189.848 114.878 189.998 114.886C190.186 114.893 190.354 114.942 190.507 115.024C190.566 115.055 190.629 115.088 190.675 115.127C190.744 115.184 190.79 115.255 190.828 115.327C190.898 115.47 190.909 115.63 190.835 115.79C190.814 115.838 190.78 115.888 190.752 115.937C190.746 115.944 190.742 115.948 190.736 115.956C190.679 116.072 190.563 116.158 190.439 116.237C190.322 116.308 190.193 116.377 190.047 116.412C189.836 116.463 189.626 116.49 189.42 116.448C189.359 116.436 189.298 116.431 189.237 116.426C189.168 116.485 189.171 116.514 189.268 116.53C189.397 116.547 189.53 116.567 189.662 116.572C189.758 116.574 189.866 116.561 189.96 116.541C190.092 116.515 190.224 116.481 190.339 116.421C190.485 116.347 190.615 116.267 190.723 116.168C190.87 116.029 190.96 115.882 191.006 115.724C191.048 115.57 191.035 115.422 190.962 115.282C190.924 115.211 190.872 115.148 190.814 115.092C190.782 115.06 190.757 115.012 190.685 115.004C190.678 115.005 190.674 115.002 190.671 114.999C190.573 114.897 190.391 114.882 190.254 114.819C190.136 114.812 190.028 114.786 189.908 114.797C189.799 114.804 189.693 114.807 189.586 114.834C189.53 114.847 189.522 114.84 189.508 114.795C189.46 114.625 189.479 114.444 189.488 114.269C189.498 114.061 189.586 113.86 189.685 113.662C189.712 113.613 189.733 113.565 189.756 113.513C189.762 113.498 189.775 113.482 189.781 113.468C189.799 113.437 189.827 113.428 189.867 113.442C189.907 113.456 189.954 113.462 190.001 113.476C190.002 113.412 189.997 113.355 190.003 113.301C190.004 113.236 190.078 113.155 190.163 113.115C190.192 113.126 190.219 113.149 190.255 113.153C190.402 113.171 190.531 113.22 190.674 113.236C190.709 113.154 190.764 113.095 190.851 113.037C190.91 113.061 190.971 113.08 191.03 113.103C191.133 113.143 191.242 113.169 191.357 113.187C191.407 113.197 191.452 113.221 191.497 113.246C191.538 113.267 191.559 113.272 191.588 113.237C191.62 113.198 191.673 113.19 191.717 113.168C191.743 113.152 191.802 113.175 191.829 113.197C191.88 113.246 191.926 113.292 191.98 113.337C192.022 113.372 192.068 113.404 192.117 113.438C192.158 113.467 192.196 113.492 192.2 113.534C192.206 113.559 192.225 113.575 192.269 113.553C192.364 113.508 192.44 113.526 192.515 113.569C192.48 113.69 192.531 113.793 192.601 113.89C192.661 113.966 192.728 114.042 192.792 114.122C192.82 114.159 192.818 114.177 192.779 114.216C192.756 114.236 192.736 114.252 192.703 114.276C192.723 114.3 192.739 114.319 192.758 114.343C192.829 114.422 192.934 114.476 193.058 114.515C193.116 114.531 193.122 114.556 193.108 114.596C193.104 114.6 193.109 114.61 193.105 114.607C192.993 114.664 192.967 114.766 192.862 114.822C192.778 114.869 192.685 114.902 192.574 114.927C192.582 114.901 192.584 114.876 192.589 114.854C192.61 114.781 192.579 114.741 192.485 114.728C192.432 114.723 192.39 114.694 192.324 114.704C192.216 114.724 192.123 114.758 192.051 114.822C192.018 114.853 191.982 114.882 191.96 114.916C191.935 114.954 191.945 114.988 191.974 115.025C192.021 115.085 192.062 115.138 192.181 115.12C192.209 115.118 192.237 115.122 192.269 115.123C192.223 115.195 192.157 115.251 192.069 115.295C191.981 115.338 191.849 115.333 191.785 115.285C191.754 115.266 191.724 115.248 191.691 115.233C191.658 115.218 191.63 115.228 191.608 115.255C191.478 115.388 191.436 115.549 191.555 115.681C191.587 115.721 191.611 115.761 191.559 115.809C191.536 115.829 191.516 115.845 191.47 115.846C191.375 115.851 191.297 115.89 191.284 115.938C191.274 115.982 191.274 116.028 191.289 116.073C191.299 116.108 191.295 116.137 191.283 116.166C191.266 116.211 191.232 116.228 191.164 116.223C191.146 116.221 191.125 116.223 191.108 116.222C191.075 116.214 191.058 116.226 191.032 116.243C190.918 116.325 190.798 116.407 190.662 116.469C190.394 116.598 190.117 116.666 189.812 116.666C189.645 116.663 189.494 116.641 189.337 116.62C189.283 116.614 189.232 116.598 189.177 116.585C189.127 116.575 189.096 116.581 189.088 116.614C189.056 116.692 188.984 116.756 188.93 116.829C188.857 116.917 188.74 116.957 188.602 116.959C188.503 116.961 188.436 116.924 188.362 116.895C188.351 116.892 188.354 116.882 188.349 116.871C188.434 116.831 188.519 116.792 188.604 116.752C188.717 116.702 188.788 116.624 188.862 116.549C188.918 116.498 188.947 116.431 189.018 116.385C189.048 116.365 189.049 116.339 189.012 116.321C188.993 116.312 188.978 116.3 188.955 116.287C188.883 116.351 188.822 116.417 188.746 116.478C188.667 116.542 188.576 116.597 188.489 116.655C188.402 116.713 188.304 116.761 188.193 116.786C188.099 116.805 188.006 116.832 187.911 116.805C187.907 116.801 187.901 116.809 187.898 116.813C187.862 116.77 187.825 116.759 187.785 116.745ZM191.934 113.769C191.955 113.689 191.911 113.632 191.824 113.612C191.759 113.596 191.662 113.619 191.613 113.663C191.557 113.715 191.558 113.761 191.613 113.82C191.632 113.797 191.652 113.781 191.661 113.762C191.709 113.672 191.82 113.68 191.876 113.721C191.892 113.734 191.911 113.75 191.934 113.769ZM192.656 114.224C192.58 114.213 192.519 114.201 192.458 114.188C192.423 114.238 192.469 114.276 192.459 114.327C192.527 114.293 192.585 114.262 192.656 114.224Z" fill="#B82025"/>
<path d="M176.702 110.624C176.758 110.619 176.758 110.579 176.788 110.559C176.92 110.454 177.079 110.371 177.219 110.273C177.403 110.145 177.597 110.028 177.785 109.903C178.042 109.733 178.303 109.56 178.56 109.39C178.607 109.357 178.657 109.32 178.726 109.306C178.758 109.3 178.79 109.301 178.819 109.312C179.119 109.42 179.416 109.525 179.716 109.633C179.75 109.648 179.772 109.667 179.792 109.683C179.774 109.76 179.684 109.789 179.628 109.827C179.521 109.901 179.413 109.968 179.307 110.042C179.193 110.116 179.09 110.194 178.977 110.268C178.843 110.359 178.699 110.447 178.565 110.538C178.438 110.621 178.314 110.7 178.198 110.786C178.148 110.823 178.118 110.883 178.158 110.929C178.17 110.946 178.199 110.957 178.225 110.966C178.547 111.079 178.866 111.196 179.188 111.309C179.224 111.32 179.254 111.338 179.281 111.361C179.319 111.386 179.318 111.418 179.282 111.446C179.196 111.511 179.11 111.584 179.005 111.64C178.958 111.665 178.919 111.705 178.876 111.734C178.755 111.809 178.646 111.894 178.509 111.956C178.451 111.979 178.412 111.972 178.369 111.969C178.351 111.967 178.329 111.955 178.314 111.949C177.823 111.773 177.332 111.597 176.838 111.425C176.732 111.388 176.659 111.327 176.593 111.258C176.534 111.196 176.496 111.124 176.503 111.045C176.51 110.966 176.524 110.886 176.581 110.81C176.587 110.802 176.583 110.792 176.581 110.778C176.619 110.724 176.66 110.674 176.702 110.624Z" fill="#B82025"/>
<path d="M194.205 116.615C194.104 116.563 193.979 116.55 193.913 116.481C193.92 116.441 193.953 116.424 193.991 116.402C194.095 116.346 194.196 116.287 194.304 116.227C194.736 116.38 195.168 116.533 195.611 116.689C195.585 116.713 195.563 116.74 195.533 116.76C195.369 116.872 195.205 116.976 195.045 117.09C194.825 117.239 194.612 117.394 194.392 117.543C194.305 117.601 194.276 117.597 194.201 117.546C194.095 117.478 193.986 117.406 193.848 117.368C193.753 117.341 193.646 117.33 193.545 117.31C193.448 117.294 193.35 117.271 193.253 117.255C193.106 117.237 192.988 117.19 192.86 117.149C192.736 117.103 192.634 117.037 192.533 116.972C192.442 116.916 192.373 116.851 192.306 116.782C192.205 116.677 192.137 116.555 192.131 116.413C192.127 116.292 192.145 116.176 192.202 116.06C192.226 116.015 192.254 115.966 192.285 115.921C192.307 115.886 192.324 115.849 192.35 115.818C192.469 115.689 192.604 115.567 192.779 115.472C192.871 115.424 192.958 115.373 193.05 115.333C193.247 115.236 193.462 115.181 193.68 115.129C193.927 115.074 194.174 115.065 194.421 115.057C194.541 115.053 194.66 115.067 194.771 115.082C194.878 115.093 194.979 115.113 195.087 115.131C195.094 115.131 195.098 115.134 195.105 115.133C195.214 115.166 195.326 115.188 195.426 115.232C195.566 115.291 195.707 115.356 195.82 115.438C195.9 115.499 195.936 115.581 196.032 115.629C196.068 115.712 196.11 115.786 196.135 115.866C196.177 116.012 196.152 116.161 196.073 116.311C196.051 116.345 196.03 116.379 196.008 116.413C195.989 116.443 195.966 116.456 195.922 116.446C195.89 116.438 195.854 116.435 195.828 116.426C195.605 116.35 195.382 116.267 195.162 116.188C195.118 116.17 195.074 116.153 195.026 116.139C194.975 116.123 194.962 116.092 194.973 116.055C195.002 115.949 194.921 115.882 194.848 115.813C194.817 115.788 194.763 115.782 194.719 115.764C194.484 115.672 194.222 115.675 193.948 115.739C193.716 115.793 193.519 115.889 193.392 116.051C193.335 116.127 193.303 116.205 193.304 116.291C193.304 116.369 193.341 116.434 193.396 116.493C193.444 116.545 193.508 116.593 193.596 116.621C193.643 116.634 193.688 116.659 193.738 116.668C193.857 116.689 193.976 116.711 194.111 116.673C194.153 116.669 194.183 116.649 194.205 116.615Z" fill="#B82025"/>
<path d="M202.961 120.641C202.944 120.646 202.924 120.655 202.91 120.663C202.754 120.774 202.6 120.881 202.447 120.988C202.374 121.038 202.3 121.087 202.227 121.137C202.173 121.17 202.121 121.178 202.062 121.155C201.944 121.109 201.823 121.067 201.7 121.028C201.586 120.992 201.47 120.96 201.353 120.921C201.291 120.902 201.235 120.867 201.179 120.84C201.192 120.786 201.253 120.759 201.3 120.726C201.42 120.644 201.536 120.558 201.656 120.475C201.773 120.397 201.89 120.318 202.003 120.237C202.274 120.051 202.54 119.862 202.807 119.681C202.94 119.59 203.078 119.503 203.211 119.412C203.378 119.297 203.545 119.181 203.712 119.073C203.796 119.019 203.87 119.016 203.945 119.059C204.042 119.121 204.153 119.168 204.273 119.204C204.277 119.207 204.277 119.207 204.284 119.206C204.407 119.198 204.497 119.254 204.609 119.269C204.68 119.277 204.749 119.295 204.818 119.314C204.953 119.355 205.088 119.396 205.22 119.441C205.432 119.515 205.608 119.623 205.721 119.77C205.813 119.886 205.839 120.019 205.806 120.162C205.776 120.268 205.732 120.368 205.646 120.465C205.549 120.574 205.423 120.671 205.285 120.752C205.097 120.862 204.889 120.949 204.663 121.002C204.479 121.044 204.287 121.079 204.098 121.057C203.912 121.039 203.732 121.012 203.57 120.949C203.545 120.94 203.512 120.933 203.484 120.928C203.473 120.926 203.459 120.927 203.451 120.921C203.335 120.856 203.196 120.812 203.091 120.743C203.042 120.715 203.003 120.676 202.961 120.641ZM203.768 120.388C203.907 120.44 204.012 120.462 204.126 120.473C204.272 120.485 204.401 120.455 204.526 120.39C204.665 120.317 204.784 120.227 204.844 120.107C204.874 120.048 204.89 119.989 204.864 119.941C204.821 119.853 204.731 119.797 204.624 119.753C204.61 119.747 204.595 119.748 204.578 119.746C204.373 119.719 204.205 119.781 204.048 119.884C203.944 119.955 203.837 120.022 203.734 120.092C203.674 120.133 203.617 120.17 203.561 120.215C203.514 120.248 203.513 120.28 203.557 120.297C203.638 120.332 203.724 120.371 203.768 120.388Z" fill="#B82025"/>
<path d="M184.942 112.275C185.082 112.333 185.241 112.368 185.368 112.449C185.455 112.502 185.565 112.542 185.69 112.556C185.783 112.568 185.877 112.581 185.97 112.601C186.061 112.618 186.151 112.634 186.234 112.659C186.397 112.697 186.563 112.732 186.682 112.825C186.689 112.831 186.697 112.838 186.708 112.84C186.84 112.885 186.907 112.968 186.976 113.058C187.024 113.118 187.051 113.187 187.058 113.258C187.066 113.35 187.046 113.444 186.987 113.532C186.974 113.547 186.969 113.569 186.956 113.584C186.934 113.611 186.908 113.642 186.886 113.669C186.88 113.677 186.866 113.686 186.86 113.693C186.8 113.781 186.696 113.837 186.605 113.899C186.409 114.034 186.212 114.17 186.016 114.313C185.936 114.371 185.853 114.432 185.773 114.489C185.707 114.538 185.661 114.546 185.581 114.517C185.387 114.453 185.19 114.393 185 114.325C184.89 114.285 184.787 114.237 184.676 114.19C184.664 114.141 184.726 114.114 184.765 114.082C184.922 113.971 185.082 113.864 185.239 113.753C185.275 113.725 185.312 113.704 185.349 113.675C185.462 113.593 185.578 113.515 185.688 113.437C185.768 113.38 185.783 113.307 185.677 113.27C185.564 113.234 185.451 113.198 185.33 113.163C185.276 113.15 185.222 113.177 185.178 113.206C185.101 113.252 185.031 113.305 184.958 113.354C184.854 113.424 184.755 113.498 184.655 113.571C184.488 113.686 184.322 113.809 184.156 113.924C184.079 113.978 184.072 113.978 183.988 113.954C183.788 113.89 183.587 113.827 183.386 113.756C183.29 113.722 183.202 113.68 183.11 113.642C183.062 113.621 183.066 113.593 183.113 113.56C183.283 113.441 183.456 113.325 183.622 113.202C183.852 113.042 184.075 112.882 184.302 112.719C184.428 112.629 184.559 112.549 184.686 112.459C184.769 112.398 184.848 112.34 184.942 112.275Z" fill="#B82025"/>
<path d="M201.411 118.157C201.546 118.205 201.685 118.257 201.821 118.305C201.901 118.333 201.906 118.383 201.825 118.426C201.726 118.474 201.654 118.538 201.571 118.592C201.487 118.646 201.415 118.717 201.332 118.771C201.174 118.868 201.028 118.981 200.878 119.084C200.808 119.13 200.811 119.204 200.885 119.233C200.966 119.269 201.044 119.308 201.14 119.317C201.158 119.319 201.173 119.325 201.191 119.334C201.272 119.362 201.324 119.353 201.401 119.3C201.617 119.148 201.837 118.992 202.054 118.84C202.174 118.758 202.29 118.672 202.414 118.593C202.471 118.556 202.506 118.552 202.572 118.575C202.847 118.675 203.121 118.767 203.396 118.867C203.476 118.895 203.482 118.92 203.409 118.976C203.323 119.041 203.229 119.1 203.143 119.165C202.91 119.329 202.673 119.497 202.44 119.661C202.26 119.785 202.083 119.905 201.903 120.028C201.833 120.074 201.766 120.123 201.7 120.172C201.643 120.216 201.587 120.221 201.528 120.198C201.44 120.163 201.348 120.126 201.263 120.087C201.197 120.057 201.14 120.016 201.08 119.979C201.072 119.973 201.065 119.973 201.054 119.97C200.983 119.963 200.907 119.952 200.839 119.94C200.746 119.928 200.658 119.9 200.561 119.891C200.415 119.879 200.307 119.815 200.167 119.795C200.156 119.793 200.152 119.79 200.141 119.787C199.976 119.72 199.806 119.65 199.69 119.539C199.562 119.419 199.51 119.278 199.552 119.117C199.58 118.996 199.659 118.886 199.775 118.793C199.92 118.673 200.087 118.564 200.247 118.45C200.43 118.322 200.613 118.188 200.792 118.057C200.805 118.049 200.822 118.037 200.836 118.028C200.883 118.002 200.924 117.991 200.979 118.011C201.118 118.056 201.264 118.106 201.411 118.157Z" fill="#B82025"/>
<path d="M181.341 113.055C181.301 113.041 181.265 113.03 181.224 113.016C181.21 113.01 181.188 113.005 181.176 112.995C181.118 112.94 181.03 112.905 180.962 112.855C180.916 112.823 180.881 112.78 180.856 112.74C180.799 112.659 180.749 112.578 180.737 112.483C180.717 112.349 180.748 112.218 180.843 112.088C180.947 111.946 181.093 111.84 181.272 111.748C181.354 111.705 181.446 111.672 181.536 111.642C181.779 111.552 182.035 111.518 182.288 111.502C182.433 111.492 182.581 111.485 182.724 111.501C182.856 111.514 182.992 111.522 183.112 111.558C183.196 111.582 183.285 111.592 183.362 111.617C183.461 111.654 183.547 111.707 183.639 111.745C183.775 111.8 183.861 111.885 183.943 111.974C184.073 112.115 184.11 112.283 184.055 112.46C184.027 112.548 183.972 112.639 183.877 112.722C183.801 112.79 183.718 112.851 183.628 112.906C183.544 112.96 183.444 112.994 183.345 113.035C183.198 113.095 183.039 113.131 182.878 113.16C182.659 113.205 182.437 113.215 182.213 113.211C182.163 113.208 182.114 113.213 182.065 113.217C182.058 113.218 182.047 113.215 182.04 113.216C181.903 113.193 181.763 113.173 181.63 113.147C181.525 113.124 181.426 113.094 181.328 113.064C181.338 113.059 181.341 113.055 181.341 113.055ZM182.102 112.575C182.139 112.586 182.18 112.614 182.23 112.617C182.351 112.627 182.469 112.634 182.594 112.608C182.709 112.587 182.815 112.545 182.887 112.474C182.933 112.434 182.956 112.375 182.947 112.322C182.937 112.281 182.846 112.185 182.809 112.167C182.688 112.118 182.561 112.083 182.409 112.093C182.268 112.099 182.135 112.119 182.018 112.19C181.921 112.253 181.848 112.356 181.903 112.447C181.94 112.511 182.001 112.549 182.102 112.575Z" fill="#B82025"/>
<path d="M196.933 117.784C197.066 117.607 197.265 117.493 197.512 117.406C197.615 117.368 197.718 117.33 197.829 117.305C198.124 117.246 198.42 117.219 198.712 117.235C198.854 117.243 198.998 117.266 199.141 117.281C199.177 117.285 199.207 117.303 199.243 117.314C199.302 117.33 199.356 117.343 199.414 117.359C199.444 117.371 199.466 117.39 199.492 117.399C199.594 117.432 199.69 117.473 199.766 117.53C199.804 117.555 199.845 117.577 199.872 117.606C199.95 117.678 200.031 117.752 200.06 117.842C200.104 117.97 200.113 118.109 200.037 118.248C199.985 118.342 199.914 118.42 199.822 118.499C199.707 118.592 199.568 118.666 199.424 118.722C199.322 118.767 199.211 118.798 199.096 118.819C198.937 118.856 198.773 118.888 198.608 118.9C198.481 118.912 198.353 118.909 198.229 118.91C198.035 118.91 197.858 118.873 197.674 118.843C197.634 118.836 197.597 118.818 197.557 118.804C197.514 118.794 197.47 118.783 197.427 118.773C197.412 118.767 197.397 118.762 197.379 118.753C197.36 118.744 197.341 118.728 197.319 118.722C197.085 118.644 196.935 118.512 196.839 118.346C196.751 118.2 196.765 118.042 196.842 117.878C196.861 117.855 196.904 117.819 196.933 117.784ZM198.114 118.303C198.214 118.355 198.338 118.347 198.459 118.35C198.572 118.354 198.69 118.329 198.796 118.28C198.884 118.236 198.954 118.183 198.964 118.1C198.972 118.035 198.939 117.981 198.889 117.939C198.816 117.878 198.718 117.848 198.61 117.829C198.502 117.811 198.386 117.825 198.278 117.839C198.183 117.851 198.083 117.885 198.021 117.944C197.893 118.059 197.887 118.146 198.018 118.255C198.037 118.271 198.081 118.288 198.114 118.303Z" fill="#B82025"/>
<path d="M194.596 117.76C194.567 117.723 194.579 117.693 194.626 117.661C194.875 117.484 195.129 117.311 195.376 117.138C195.549 117.016 195.722 116.893 195.895 116.77C196.021 116.679 196.148 116.596 196.279 116.509C196.336 116.472 196.385 116.435 196.449 116.397C196.538 116.432 196.643 116.462 196.732 116.503C196.835 116.551 196.943 116.602 197.072 116.618C197.147 116.629 197.214 116.659 197.286 116.674C197.455 116.704 197.599 116.766 197.746 116.824C197.878 116.876 197.951 116.969 197.965 117.086C197.969 117.128 197.952 117.148 197.89 117.168C197.828 117.188 197.77 117.204 197.711 117.22C197.545 117.264 197.382 117.304 197.22 117.351C197.168 117.366 197.113 117.385 197.08 117.338C196.952 117.29 196.82 117.284 196.665 117.33C196.583 117.359 196.534 117.403 196.473 117.444C196.373 117.511 196.28 117.583 196.187 117.649C196.064 117.735 195.944 117.825 195.821 117.911C195.758 117.956 195.692 118.005 195.624 118.047C195.581 118.076 195.503 118.076 195.448 118.056C195.188 117.962 194.928 117.868 194.668 117.774C194.642 117.766 194.621 117.768 194.596 117.76Z" fill="#B82025"/>
<path d="M180.73 110.778C181.078 110.899 181.408 111.019 181.745 111.138C181.726 111.168 181.707 111.191 181.67 111.212C181.476 111.344 181.287 111.479 181.093 111.611C180.89 111.755 180.687 111.899 180.484 112.042C180.304 112.166 180.12 112.293 179.94 112.417C179.863 112.47 179.857 112.471 179.765 112.44C179.561 112.373 179.36 112.31 179.159 112.239C179.063 112.205 178.975 112.163 178.883 112.125C178.849 112.11 178.847 112.089 178.874 112.065C178.903 112.038 178.936 112.013 178.969 111.989C179.132 111.87 179.292 111.756 179.459 111.64C179.588 111.546 179.726 111.459 179.852 111.369C180.052 111.229 180.255 111.086 180.459 110.949C180.55 110.894 180.64 110.839 180.73 110.778Z" fill="#B82025"/>
<path d="M181.415 110.854C181.264 110.793 181.156 110.735 181.091 110.641C181.021 110.537 181.072 110.397 181.22 110.312C181.334 110.244 181.464 110.229 181.589 110.203C181.726 110.18 181.855 110.196 181.981 110.217C182.042 110.229 182.1 110.245 182.162 110.264C182.29 110.306 182.377 110.373 182.439 110.464C182.484 110.527 182.49 110.598 182.447 110.673C182.429 110.704 182.395 110.728 182.358 110.749C182.252 110.823 182.12 110.857 181.984 110.88C181.869 110.901 181.755 110.898 181.648 110.886C181.559 110.884 181.472 110.863 181.415 110.854Z" fill="#B82025"/>
<path d="M170.265 84.8703C170.275 84.8652 170.285 84.8451 170.295 84.8502C170.445 84.9306 170.535 84.8904 170.61 84.7999C170.585 84.7698 170.565 84.7245 170.54 84.7044C170.3 84.5185 170.13 84.2722 169.971 84.0109C169.816 83.7597 169.691 83.5034 169.582 83.2471C169.492 83.031 169.422 82.8099 169.357 82.5938C169.322 82.4882 169.352 82.4732 169.502 82.4732C169.522 82.5083 169.547 82.5485 169.562 82.5887C169.731 82.9857 169.886 83.3777 170.105 83.7647C170.325 84.1567 170.574 84.5135 170.919 84.7949C171.059 84.9105 171.189 85.021 171.338 85.0864C171.593 85.1919 171.812 85.1366 171.917 84.9406C171.747 84.81 171.578 84.6743 171.403 84.5486C171.198 84.4029 171.024 84.1969 170.844 84.0109C170.689 83.8501 170.555 83.6642 170.42 83.4782C170.31 83.3325 170.2 83.1767 170.111 83.0209C170.066 82.9405 170.016 82.8601 169.971 82.7797C169.916 82.6943 169.871 82.6038 169.816 82.5134C169.751 82.4078 169.756 82.3978 169.831 82.3676C169.866 82.3525 169.896 82.3375 169.936 82.3174C169.971 82.3626 170.006 82.4078 170.036 82.4531C170.18 82.6641 170.315 82.8852 170.465 83.0913C170.759 83.4983 171.069 83.8853 171.438 84.2119C171.618 84.3728 171.792 84.5185 171.992 84.5989C172.047 84.624 172.107 84.6843 172.166 84.7095C172.321 84.7748 172.486 84.8602 172.631 84.8853C172.875 84.9205 173.075 84.8602 173.165 84.6341C173.195 84.5537 173.195 84.4532 173.205 84.3728C172.995 84.3024 172.791 84.2773 172.606 84.1667C172.346 84.0109 172.082 83.9205 171.822 83.7345C171.208 83.3023 170.65 82.7948 170.131 82.1566C170.175 82.1113 170.22 82.0661 170.27 82.0108C170.48 82.1917 170.689 82.3525 170.884 82.5435C171.044 82.6993 171.208 82.8149 171.373 82.9556C171.573 83.1265 171.787 83.232 171.987 83.3878C172.341 83.6591 172.696 83.7396 173.05 83.9355C173.06 83.9406 173.075 83.9506 173.08 83.9506C173.359 83.9757 173.659 84.0763 173.898 83.9808C174.148 83.8853 174.302 83.6843 174.307 83.3476C174.307 83.2521 174.297 83.1516 174.288 83.0561C174.283 83.0209 174.268 82.9807 174.253 82.9405C173.998 83.0159 173.734 83.0209 173.444 82.9757C173.364 82.9606 173.289 82.9807 173.205 82.9606C172.875 82.8802 172.561 82.8601 172.212 82.6842C172.037 82.5938 171.857 82.5586 171.683 82.4681C171.373 82.3073 171.059 82.1767 170.754 81.9505C170.67 81.8852 170.575 81.84 170.485 81.7847C170.455 81.7646 170.43 81.7294 170.39 81.6892C170.405 81.6389 170.42 81.5887 170.44 81.5234C170.545 81.5736 170.654 81.6239 170.759 81.6691C170.939 81.7495 171.119 81.8299 171.298 81.9153C171.478 82.0008 171.648 82.041 171.822 82.0962C171.987 82.1515 172.152 82.1968 172.316 82.247C172.701 82.3626 173.07 82.433 173.419 82.4279C173.754 82.4229 174.068 82.3877 174.333 82.237C174.492 82.1465 174.602 82.0058 174.677 81.8249C174.687 81.7947 174.692 81.7545 174.692 81.7143C174.692 81.6088 174.682 81.4932 174.697 81.3927C174.717 81.2118 174.627 81.0309 174.542 80.8449C174.512 80.7796 174.472 80.7143 174.427 80.6389C174.407 80.6489 174.378 80.654 174.363 80.6741C174.128 80.9354 173.829 81.0962 173.479 81.1867C173.28 81.2369 173.085 81.3073 172.87 81.3324C172.551 81.3676 172.237 81.4027 171.897 81.3776C171.668 81.3625 171.443 81.3625 171.208 81.3173C171.084 81.2922 170.954 81.2821 170.819 81.2369C170.719 81.2017 170.61 81.1967 170.505 81.1666C170.4 80.9555 170.415 80.8902 170.59 80.9103C170.984 80.9454 171.363 80.9555 171.733 80.9153C172.057 80.8801 172.376 80.8299 172.676 80.7545C173.055 80.659 173.384 80.473 173.694 80.267C173.843 80.1665 173.973 80.0409 174.078 79.8901C174.163 79.7695 174.268 79.669 174.333 79.5333C174.397 79.4077 174.427 79.2519 174.467 79.1011C174.537 78.8297 174.452 78.5081 174.333 78.1815C174.238 77.9151 173.918 77.4779 173.684 77.4377C173.634 77.5985 173.594 77.7694 173.534 77.9252C173.469 78.1161 173.409 78.3172 173.314 78.483C173.16 78.7493 172.99 79.0056 172.81 79.2418C172.686 79.4077 172.536 79.5534 172.376 79.679C172.197 79.8197 171.992 79.9253 171.792 80.0409C171.707 80.0911 171.623 80.1414 171.533 80.1816C171.318 80.267 171.099 80.3524 170.874 80.4278C170.709 80.4781 170.535 80.5133 170.35 80.5535C170.32 80.458 170.295 80.3826 170.265 80.2871C170.335 80.262 170.405 80.2369 170.475 80.2067C170.66 80.1313 170.849 80.076 171.024 79.9806C171.323 79.8197 171.623 79.6539 171.862 79.4026C171.992 79.267 172.132 79.1514 172.262 79.0207C172.321 78.9604 172.376 78.8901 172.426 78.8147C172.661 78.4679 172.865 78.096 173 77.6588C173.075 77.4226 173.15 77.1915 173.19 76.9352C173.225 76.7141 173.24 76.4728 173.225 76.2266C173.205 75.905 173.18 75.5833 173.065 75.2366C172.965 74.93 172.84 74.6285 172.581 74.3773C172.376 74.1762 172.172 74.0255 171.947 74.0054C171.937 74.0054 171.927 74.0104 171.917 74.0054C171.722 73.9652 171.718 73.9652 171.772 74.1963C171.867 74.6034 171.907 74.9954 171.902 75.3723C171.902 75.4728 171.922 75.5833 171.932 75.6839C171.937 75.7241 171.937 75.7643 171.932 75.8045C171.922 75.9401 171.902 76.0708 171.902 76.2115C171.902 76.4125 171.862 76.5934 171.842 76.7844C171.817 76.9955 171.777 77.1965 171.737 77.3975C171.682 77.6789 171.608 77.9453 171.493 78.1815C171.383 78.4026 171.268 78.6237 171.139 78.8247C171.004 79.0358 170.839 79.2167 170.654 79.3825C170.565 79.4629 170.485 79.5584 170.38 79.6238C170.275 79.6891 170.17 79.7594 170.051 79.8298C169.991 79.7444 169.941 79.679 169.901 79.6137C169.726 79.3273 169.502 79.081 169.267 78.88C168.963 78.6237 168.648 78.4478 168.319 78.3523C168.184 78.3121 168.049 78.277 167.93 78.2669C167.755 78.2569 167.59 78.292 167.445 78.3523C167.156 78.4729 166.941 78.689 166.847 79.0308C166.817 79.1363 166.807 79.2519 166.787 79.3624C166.782 79.3775 166.787 79.3976 166.787 79.4127C166.732 79.664 166.797 79.9605 166.892 80.257C166.976 80.5334 167.091 80.8198 167.271 81.0811C167.53 81.4631 167.82 81.8098 168.184 82.046C168.289 82.1113 168.389 82.1968 168.493 82.2721C168.523 82.4631 168.479 82.4983 168.314 82.3827C168.094 82.2219 167.87 82.0611 167.66 81.8751C167.51 81.7394 167.366 81.5686 167.241 81.3927C167.076 81.1666 166.917 80.9253 166.817 80.664C166.692 80.3474 166.582 80.0409 166.542 79.7293C166.487 79.3122 166.537 78.9654 166.677 78.6639C166.812 78.3724 167.016 78.1714 167.301 78.0659C167.445 78.0106 167.605 77.9955 167.765 77.9905C167.855 77.9855 167.955 77.9553 168.074 78.0408C168.084 78.0458 168.099 78.0558 168.104 78.0558C168.384 78.0458 168.678 78.287 168.968 78.3875C169.152 78.5433 169.352 78.6639 169.522 78.8498C169.676 79.0157 169.841 79.1715 169.971 79.3725C170.036 79.473 170.066 79.468 170.135 79.4278C170.425 79.2418 170.624 78.9453 170.834 78.6689C171.079 78.3473 171.203 77.9202 171.303 77.4779C171.328 77.3674 171.358 77.2618 171.383 77.1563C171.393 77.1211 171.398 77.0859 171.403 77.0508C171.408 76.9804 171.378 76.9251 171.303 76.8849C171.223 76.8447 171.143 76.7945 171.054 76.7392C171.133 76.6437 171.209 76.5633 171.273 76.4678C171.348 76.3673 171.338 76.1412 171.263 75.9603C171.199 75.9351 171.134 75.9301 171.079 75.8899C170.834 75.704 170.575 75.5984 170.33 75.4125C170.385 75.2466 170.37 75.0708 170.31 74.8597C170.195 74.8044 170.076 74.7491 169.956 74.6989C169.751 74.6084 169.551 74.4878 169.347 74.3572C169.252 74.2968 169.152 74.2717 169.057 74.2365C168.963 74.2064 168.928 74.1813 168.928 74.0858C168.928 73.9853 168.858 73.8948 168.823 73.7993C168.798 73.734 168.688 73.6837 168.608 73.6837C168.474 73.6837 168.339 73.6837 168.199 73.6737C168.089 73.6687 167.98 73.6486 167.865 73.6285C167.77 73.6084 167.68 73.5983 167.615 73.6486C167.575 73.6787 167.53 73.6787 167.485 73.5832C167.396 73.3772 167.256 73.2968 167.091 73.2566C166.991 73.4878 166.787 73.5732 166.552 73.6084C166.362 73.6385 166.163 73.6586 165.968 73.6787C165.878 73.6888 165.853 73.724 165.873 73.8395C165.883 73.8998 165.894 73.9601 165.908 74.0406C165.854 74.0456 165.794 74.0506 165.734 74.0556C165.524 74.0657 165.299 74.0054 165.065 73.8848C164.96 73.8295 164.92 73.8496 164.88 73.93C164.875 73.94 164.865 73.9451 164.865 73.9551C164.96 74.1963 164.87 74.3873 164.96 74.6285C165.035 74.8195 165.13 75.0054 165.27 75.2014C165.295 75.1512 165.319 75.111 165.334 75.0657C165.394 74.925 165.494 74.915 165.654 75.0255C165.744 75.0909 165.838 75.1059 165.928 75.2215C166.073 75.4075 166.163 75.5884 166.193 75.7844C166.208 75.8798 166.228 75.9753 166.218 76.0608C166.208 76.1512 166.153 76.1964 166.063 76.2065C165.918 76.2266 165.784 76.2467 165.624 76.0507C165.584 76.0055 165.534 75.9753 165.484 75.9301C165.469 76.101 165.489 76.2819 165.574 76.4779C165.654 76.6688 165.859 76.8497 166.023 76.8749C166.088 76.8849 166.158 76.905 166.228 76.9302C166.293 76.9553 166.323 77.0106 166.328 77.0809C166.358 77.4628 166.223 77.7644 165.873 77.7995C165.779 77.8096 165.689 77.8347 165.709 77.9855C165.719 78.0508 165.734 78.1011 165.799 78.1664C165.938 78.3121 166.008 78.483 165.963 78.5735C165.923 78.6589 165.858 78.7242 165.789 78.7694C165.734 78.8046 165.704 78.8599 165.679 78.9202C165.649 79.0157 165.684 79.086 165.789 79.1765C165.819 79.2016 165.849 79.2318 165.879 79.2519C165.933 79.2871 165.953 79.3323 165.968 79.3976C166.033 79.6891 166.118 79.9806 166.243 80.272C166.487 80.8449 166.832 81.3525 167.301 81.7897C167.555 82.0259 167.82 82.2118 168.084 82.4078C168.174 82.4782 168.274 82.5234 168.369 82.5787C168.459 82.634 168.498 82.6892 168.473 82.7596C168.419 82.9204 168.449 83.1214 168.449 83.3023C168.444 83.5385 168.578 83.7697 168.783 83.9757C168.933 84.1215 169.077 84.1617 169.227 84.232C169.242 84.2421 169.262 84.222 169.277 84.217C169.197 84.031 169.112 83.8551 169.033 83.6742C168.928 83.438 168.913 83.2169 168.888 82.9958C168.873 82.84 168.908 82.6993 168.858 82.5284C168.838 82.4531 168.868 82.4129 168.948 82.443C168.988 82.4581 169.033 82.4631 169.082 82.4732C169.107 82.6691 169.122 82.8601 169.162 83.0561C169.202 83.2672 169.267 83.4782 169.327 83.6893C169.387 83.9004 169.477 84.1114 169.616 84.3124C169.731 84.4783 169.851 84.6491 170.021 84.7497C170.026 84.7547 170.031 84.7698 170.036 84.7848C170.111 84.7999 170.19 84.8351 170.265 84.8703ZM167.685 74.4426C167.755 74.2918 167.89 74.2717 168.054 74.3722C168.174 74.4426 168.294 74.6235 168.314 74.7542C168.334 74.9099 168.279 74.9803 168.114 74.9904C168.114 74.9351 168.109 74.8798 168.114 74.8396C168.149 74.6386 167.98 74.4878 167.835 74.4627C167.79 74.4577 167.75 74.4526 167.685 74.4426ZM166.013 74.0908C166.143 74.1813 166.248 74.2516 166.362 74.327C166.352 74.4577 166.238 74.4426 166.183 74.533C166.123 74.3773 166.073 74.2466 166.013 74.0908Z" fill="white"/>
<path d="M222.111 103.87C222.131 103.86 222.151 103.829 222.166 103.84C222.41 104.025 222.58 103.97 222.74 103.835C222.705 103.769 222.68 103.689 222.64 103.644C222.261 103.257 222.026 102.774 221.802 102.267C221.592 101.784 221.437 101.297 221.308 100.809C221.198 100.402 221.138 99.9951 221.073 99.5931C221.043 99.3971 221.093 99.377 221.363 99.4122C221.387 99.4825 221.417 99.5579 221.437 99.6383C221.637 100.382 221.812 101.126 222.106 101.865C222.401 102.613 222.75 103.312 223.289 103.905C223.503 104.141 223.708 104.377 223.958 104.528C224.382 104.779 224.781 104.739 225.021 104.422C224.751 104.146 224.482 103.86 224.207 103.593C223.878 103.282 223.623 102.875 223.354 102.493C223.124 102.166 222.935 101.799 222.74 101.442C222.58 101.151 222.43 100.854 222.311 100.553C222.251 100.397 222.186 100.246 222.121 100.091C222.051 99.9197 221.986 99.7489 221.916 99.583C221.832 99.377 221.837 99.3619 221.981 99.3267C222.041 99.3117 222.101 99.2916 222.176 99.2664C222.226 99.3569 222.276 99.4423 222.316 99.5278C222.515 99.9449 222.7 100.367 222.91 100.769C223.329 101.563 223.778 102.327 224.347 103C224.621 103.327 224.896 103.639 225.225 103.829C225.32 103.885 225.41 104.01 225.505 104.066C225.764 104.221 226.029 104.417 226.283 104.493C226.707 104.618 227.077 104.563 227.291 104.181C227.366 104.051 227.391 103.87 227.431 103.729C227.072 103.553 226.722 103.458 226.418 103.206C225.994 102.86 225.555 102.633 225.14 102.236C224.167 101.312 223.299 100.266 222.545 99.0001C222.635 98.9297 222.725 98.8594 222.83 98.774C223.154 99.1509 223.483 99.4876 223.778 99.8745C224.017 100.191 224.287 100.442 224.542 100.729C224.851 101.081 225.205 101.332 225.525 101.654C226.084 102.221 226.692 102.463 227.271 102.895C227.291 102.91 227.306 102.925 227.326 102.93C227.81 103.046 228.324 103.302 228.768 103.196C229.233 103.086 229.557 102.779 229.652 102.176C229.677 102.01 229.682 101.829 229.692 101.648C229.692 101.583 229.672 101.508 229.657 101.432C229.183 101.498 228.714 101.447 228.215 101.292C228.075 101.246 227.935 101.262 227.795 101.206C227.237 100.98 226.678 100.859 226.109 100.462C225.819 100.256 225.51 100.146 225.22 99.9398C224.711 99.578 224.192 99.2614 223.708 98.779C223.568 98.6433 223.419 98.5378 223.274 98.4121C223.224 98.3719 223.189 98.2965 223.134 98.2212C223.174 98.1357 223.214 98.0453 223.264 97.9347C223.439 98.0503 223.618 98.1659 223.798 98.2764C224.092 98.4674 224.392 98.6584 224.686 98.8544C224.981 99.0503 225.275 99.1659 225.575 99.3117C225.854 99.4524 226.128 99.573 226.408 99.7087C227.057 100.015 227.696 100.231 228.319 100.317C228.908 100.397 229.482 100.412 229.986 100.211C230.291 100.091 230.525 99.8745 230.705 99.568C230.735 99.5177 230.745 99.4423 230.755 99.377C230.785 99.186 230.795 98.98 230.84 98.8041C230.925 98.4925 230.81 98.1408 230.7 97.789C230.66 97.6633 230.605 97.5427 230.545 97.392C230.505 97.407 230.455 97.4121 230.426 97.4372C229.941 97.8392 229.368 98.0503 228.729 98.1206C228.359 98.1609 228 98.2362 227.616 98.2212C227.047 98.196 226.473 98.186 225.879 98.0553C225.475 97.9649 225.075 97.9096 224.671 97.7689C224.452 97.6935 224.232 97.6432 224.003 97.5277C223.833 97.4422 223.643 97.402 223.459 97.3216C223.324 96.9196 223.374 96.814 223.678 96.8844C224.367 97.0502 225.041 97.1658 225.699 97.1859C226.283 97.206 226.857 97.201 227.416 97.1407C228.11 97.0653 228.739 96.8241 229.343 96.5326C229.632 96.3919 229.896 96.206 230.121 95.9648C230.301 95.7738 230.51 95.618 230.665 95.3969C230.81 95.1858 230.909 94.9195 231.014 94.6632C231.204 94.2008 231.134 93.6078 231.009 92.9998C230.91 92.5023 230.455 91.6479 230.046 91.5173C229.921 91.7887 229.802 92.0751 229.662 92.3465C229.492 92.6681 229.338 93.0098 229.128 93.2812C228.789 93.7184 228.424 94.1204 228.04 94.4973C227.775 94.7587 227.476 94.9798 227.162 95.1557C226.807 95.3567 226.413 95.4924 226.039 95.6482C225.879 95.7135 225.714 95.7838 225.545 95.8291C225.14 95.9296 224.731 96.0251 224.312 96.0954C224.013 96.1457 223.693 96.1557 223.349 96.1859C223.319 96.01 223.299 95.8693 223.269 95.6934C223.394 95.6632 223.528 95.6381 223.658 95.608C224.003 95.5275 224.357 95.4672 224.686 95.3517C225.26 95.1456 225.834 94.9295 226.318 94.5476C226.578 94.3416 226.862 94.1757 227.127 93.9747C227.251 93.8842 227.361 93.7737 227.466 93.6531C227.97 93.1003 228.424 92.4872 228.774 91.7535C228.963 91.3565 229.153 90.9595 229.293 90.5223C229.412 90.1403 229.497 89.7132 229.532 89.276C229.582 88.7031 229.617 88.1201 229.502 87.4769C229.397 86.904 229.258 86.3411 228.863 85.8285C228.554 85.4215 228.23 85.0948 227.835 85.0094C227.815 85.0044 227.8 85.0144 227.785 85.0044C227.451 84.8888 227.441 84.8838 227.476 85.3059C227.536 86.0547 227.516 86.7582 227.411 87.4216C227.381 87.5975 227.391 87.7985 227.381 87.9844C227.376 88.0598 227.366 88.1302 227.356 88.1955C227.306 88.4317 227.237 88.6629 227.202 88.9091C227.152 89.2709 227.037 89.5775 226.952 89.9092C226.857 90.281 226.732 90.6228 226.613 90.9695C226.448 91.457 226.238 91.9042 225.979 92.2962C225.729 92.6631 225.47 93.0249 225.19 93.3516C224.896 93.6933 224.557 93.9747 224.187 94.2159C224.008 94.3365 223.838 94.4823 223.638 94.5677C223.434 94.6531 223.234 94.7486 223.004 94.8541C222.92 94.6883 222.85 94.5627 222.795 94.427C222.56 93.8692 222.226 93.3817 221.852 92.9646C221.382 92.4319 220.863 92.045 220.304 91.7836C220.08 91.6781 219.845 91.5776 219.641 91.5324C219.336 91.467 219.032 91.4871 218.762 91.5575C218.218 91.6932 217.784 92.0198 217.525 92.6078C217.445 92.7887 217.395 92.9897 217.335 93.1857C217.325 93.2108 217.33 93.251 217.32 93.2762C217.16 93.7134 217.2 94.2511 217.29 94.7989C217.375 95.3165 217.505 95.8441 217.754 96.3517C218.114 97.0955 218.538 97.7839 219.132 98.2915C219.301 98.4373 219.461 98.6081 219.626 98.7689C219.636 99.1157 219.541 99.171 219.281 98.9197C218.932 98.578 218.573 98.2362 218.248 97.8493C218.014 97.5679 217.804 97.2261 217.625 96.8894C217.385 96.4422 217.17 95.9798 217.051 95.4924C216.911 94.8994 216.796 94.3265 216.806 93.7636C216.816 93.0098 216.996 92.4068 217.315 91.9042C217.625 91.4218 218.039 91.1203 218.578 90.9997C218.847 90.9394 219.137 90.9544 219.421 90.9846C219.581 90.9997 219.766 90.9745 219.955 91.1504C219.97 91.1655 219.995 91.1806 220.01 91.1806C220.509 91.2359 220.968 91.7384 221.452 91.9897C221.742 92.3113 222.061 92.5726 222.321 92.9495C222.55 93.2862 222.805 93.6028 222.984 93.9898C223.074 94.1858 223.129 94.1858 223.264 94.1255C223.828 93.8692 224.252 93.3968 224.696 92.9545C225.215 92.447 225.54 91.7233 225.829 90.9645C225.899 90.7786 225.979 90.5976 226.049 90.4117C226.074 90.3514 226.094 90.2911 226.109 90.2258C226.139 90.1001 226.099 89.9946 225.969 89.9041C225.839 89.8137 225.714 89.6981 225.57 89.5825C225.734 89.4317 225.889 89.3061 226.029 89.1604C226.188 88.9996 226.228 88.5925 226.138 88.2558C226.034 88.2005 225.914 88.1704 225.824 88.0849C225.44 87.698 225.006 87.4417 224.616 87.0497C224.751 86.7633 224.771 86.4517 224.721 86.0647C224.532 85.9391 224.332 85.8084 224.137 85.6878C223.798 85.4768 223.469 85.2104 223.149 84.929C222.999 84.7983 222.83 84.723 222.665 84.6476C222.505 84.5722 222.451 84.5169 222.471 84.3511C222.495 84.1702 222.391 83.9892 222.356 83.8134C222.331 83.6928 222.141 83.5721 222.006 83.552C221.767 83.5169 221.522 83.4817 221.283 83.4314C221.093 83.3912 220.898 83.3309 220.699 83.2656C220.534 83.2053 220.379 83.1651 220.25 83.2405C220.17 83.2857 220.09 83.2706 220.04 83.0897C219.935 82.7027 219.701 82.5168 219.421 82.4062C219.187 82.7882 218.807 82.8887 218.378 82.8937C218.029 82.8987 217.674 82.8786 217.32 82.8686C217.16 82.8636 217.106 82.9188 217.106 83.1299C217.106 83.2354 217.111 83.346 217.12 83.4917C217.021 83.4867 216.916 83.4817 216.811 83.4716C216.432 83.4365 216.053 83.2706 215.663 82.9942C215.489 82.8686 215.414 82.8937 215.329 83.0294C215.319 83.0445 215.294 83.0545 215.299 83.0646C215.404 83.5169 215.199 83.8284 215.299 84.2807C215.379 84.6375 215.503 84.9893 215.698 85.3712C215.753 85.2908 215.808 85.2255 215.853 85.1501C215.993 84.9189 216.172 84.9189 216.427 85.1652C216.571 85.3009 216.736 85.3562 216.866 85.5823C217.076 85.9441 217.185 86.2909 217.19 86.6527C217.19 86.8236 217.2 87.0045 217.16 87.1452C217.121 87.301 217.011 87.3663 216.851 87.3663C216.591 87.3663 216.347 87.3663 216.108 86.9794C216.053 86.8889 215.968 86.8185 215.893 86.7281C215.823 87.0296 215.818 87.3512 215.913 87.7181C216.008 88.0799 216.327 88.4518 216.607 88.5372C216.721 88.5724 216.841 88.6277 216.956 88.693C217.066 88.7533 217.106 88.8589 217.096 88.9845C217.051 89.6679 216.736 90.1705 216.112 90.1454C215.938 90.1403 215.773 90.1655 215.773 90.4318C215.773 90.5474 215.783 90.6429 215.883 90.7786C216.097 91.07 216.177 91.3917 216.072 91.5474C215.983 91.6831 215.853 91.7887 215.713 91.854C215.608 91.9042 215.539 91.9897 215.484 92.0952C215.404 92.251 215.449 92.3917 215.613 92.5776C215.658 92.6279 215.703 92.6882 215.753 92.7334C215.848 92.8138 215.863 92.8942 215.873 93.0098C215.918 93.5425 215.993 94.0802 216.137 94.628C216.427 95.7085 216.906 96.6934 217.625 97.588C218.014 98.0704 218.438 98.4674 218.852 98.8845C218.997 99.0302 219.162 99.1358 219.316 99.2614C219.466 99.382 219.516 99.4876 219.456 99.6031C219.321 99.8745 219.321 100.236 219.271 100.563C219.207 100.98 219.381 101.427 219.696 101.839C219.92 102.136 220.17 102.241 220.419 102.402C220.449 102.422 220.484 102.397 220.514 102.392C220.414 102.045 220.32 101.704 220.225 101.367C220.1 100.92 220.125 100.523 220.145 100.126C220.16 99.8444 220.255 99.6082 220.21 99.2865C220.19 99.1458 220.26 99.0855 220.394 99.1559C220.464 99.1911 220.534 99.2112 220.619 99.2463C220.614 99.6031 220.594 99.9449 220.614 100.302C220.634 100.684 220.694 101.076 220.749 101.468C220.799 101.86 220.908 102.257 221.098 102.649C221.263 102.975 221.422 103.312 221.707 103.528C221.717 103.533 221.717 103.568 221.722 103.593C221.857 103.704 221.986 103.789 222.111 103.87ZM220.175 84.723C220.334 84.4767 220.579 84.4767 220.849 84.6878C221.038 84.8385 221.213 85.1953 221.213 85.4315C221.213 85.7079 221.093 85.8235 220.799 85.8034C220.814 85.7029 220.814 85.6074 220.839 85.532C220.953 85.1853 220.684 84.8687 220.439 84.7933C220.364 84.7732 220.29 84.7531 220.175 84.723ZM217.3 83.6676C217.51 83.8586 217.679 84.0144 217.859 84.1752C217.809 84.4013 217.605 84.3461 217.49 84.4968C217.425 84.2003 217.37 83.9591 217.3 83.6676Z" fill="#B82025"/>
<path d="M299.612 29.772L291.627 25.0833L296.283 22.7364L311.255 4.64502L301.608 27.7618L299.612 29.772Z" fill="black"/>
<defs>
<linearGradient id="paint0_linear" x1="232.344" y1="117.826" x2="232.344" y2="117.83" gradientUnits="userSpaceOnUse">
<stop stop-color="#A7A9CA"/>
<stop offset="0.0156" stop-color="#A0A2C2"/>
<stop offset="0.0503" stop-color="#9698B6"/>
<stop offset="0.0988" stop-color="#9193AF"/>
<stop offset="0.2296" stop-color="#8F91AD"/>
<stop offset="0.6081" stop-color="#999BB9"/>
<stop offset="1" stop-color="#A7A9CA"/>
</linearGradient>
</defs>
</svg>
